<svg width="456mm" height="303mm" viewBox="0 0 456 303" xmlns="http://www.w3.org/2000/svg" version="1.1" preserveAspectRatio="xMidYMid meet"><g id="svgGroup" stroke-linecap="round" fill-rule="evenodd" font-size="9pt" stroke="#000" stroke-width="0.25mm" fill="none" style="stroke:#000;stroke-width:0.25mm;fill:none"><path d="M 0 223 L 0 251 L 3 251 L 3 275 L 0 275 L 0 299 L 0 303 L 15 303 L 15 300 L 39 300 L 39 303 L 63 303 L 63 300 L 87 300 L 87 303 L 111 303 L 111 300 L 135 300 L 135 303 L 150 303 L 150 275 L 147 275 L 147 251 L 150 251 L 150 227 L 150 223 L 135 223 L 135 226 L 111 226 L 111 223 L 87 223 L 87 226 L 63 226 L 63 223 L 39 223 L 39 226 L 15 226 L 15 223 L 0 223 Z" id="front_outsideCutPath" stroke="#FF0000" stroke-width="0.1" style="stroke:#FF0000;stroke-width:0.1" vector-effect="non-scaling-stroke"/><path d="M 86.66 269.043 L 85.363 269.043 L 85.363 263.504 A 3.666 3.666 0 0 0 85.321 262.929 Q 85.273 262.626 85.17 262.385 A 1.543 1.543 0 0 0 84.887 261.941 A 1.462 1.462 0 0 0 84.287 261.559 Q 84.052 261.475 83.762 261.444 A 3.438 3.438 0 0 0 83.395 261.426 Q 82.509 261.426 81.936 261.741 A 1.828 1.828 0 0 0 81.426 262.152 A 2.12 2.12 0 0 0 81.057 262.796 Q 80.835 263.388 80.805 264.269 A 8.308 8.308 0 0 0 80.801 264.551 L 80.801 269.043 L 79.504 269.043 L 79.504 260.48 L 80.559 260.48 L 80.77 261.652 L 80.832 261.652 A 2.626 2.626 0 0 1 81.861 260.716 A 3.158 3.158 0 0 1 81.949 260.672 Q 82.668 260.324 83.551 260.324 Q 84.577 260.324 85.266 260.652 A 2.33 2.33 0 0 1 85.879 261.07 A 2.248 2.248 0 0 1 86.427 261.93 Q 86.558 262.284 86.615 262.723 A 5.66 5.66 0 0 1 86.66 263.457 L 86.66 269.043 Z M 61.746 260.48 L 61.746 261.488 L 59.566 261.488 L 59.566 269.043 L 58.27 269.043 L 58.27 261.488 L 56.738 261.488 L 56.738 260.902 L 58.27 260.433 L 58.27 259.957 A 5.256 5.256 0 0 1 58.392 258.766 Q 58.772 257.141 60.325 256.86 A 3.942 3.942 0 0 1 61.027 256.801 A 4.176 4.176 0 0 1 61.618 256.846 Q 62.078 256.912 62.621 257.074 L 62.285 258.113 Q 61.752 257.941 61.33 257.891 A 2.789 2.789 0 0 0 61.004 257.871 A 1.749 1.749 0 0 0 60.582 257.919 A 1.123 1.123 0 0 0 59.918 258.359 A 1.501 1.501 0 0 0 59.72 258.759 Q 59.566 259.214 59.566 259.926 L 59.566 260.48 L 61.746 260.48 Z M 93.262 267.972 L 93.262 268.965 A 1.276 1.276 0 0 1 93.11 269.025 Q 92.923 269.087 92.641 269.133 A 5.621 5.621 0 0 1 92.274 269.18 Q 92.101 269.197 91.946 269.199 A 3.325 3.325 0 0 1 91.902 269.199 A 3.387 3.387 0 0 1 90.904 269.065 Q 89.807 268.726 89.52 267.534 A 4.076 4.076 0 0 1 89.418 266.582 L 89.418 261.488 L 88.191 261.488 L 88.191 260.863 L 89.418 260.324 L 89.965 258.496 L 90.715 258.496 L 90.715 260.48 L 93.199 260.48 L 93.199 261.488 L 90.715 261.488 L 90.715 266.527 A 2.611 2.611 0 0 0 90.753 266.986 Q 90.832 267.433 91.082 267.715 Q 91.449 268.129 92.09 268.129 A 4.259 4.259 0 0 0 92.714 268.084 A 3.925 3.925 0 0 0 92.754 268.078 Q 93.06 268.029 93.244 267.977 A 1.951 1.951 0 0 0 93.262 267.972 Z M 68.238 260.418 L 68.059 261.621 A 5.716 5.716 0 0 0 67.648 261.545 Q 67.443 261.515 67.26 261.507 A 3.042 3.042 0 0 0 67.121 261.504 A 2.247 2.247 0 0 0 65.461 262.221 A 3.074 3.074 0 0 0 65.344 262.347 A 2.962 2.962 0 0 0 64.629 264.01 A 3.936 3.936 0 0 0 64.605 264.449 L 64.605 269.043 L 63.309 269.043 L 63.309 260.48 L 64.379 260.48 L 64.527 262.066 L 64.59 262.066 A 4.38 4.38 0 0 1 65.08 261.367 A 3.345 3.345 0 0 1 65.738 260.777 A 2.585 2.585 0 0 1 67.215 260.324 A 5.954 5.954 0 0 1 67.748 260.347 A 4.345 4.345 0 0 1 68.238 260.418 Z M 77.111 266.057 A 6.699 6.699 0 0 0 77.23 264.754 Q 77.23 263.921 77.054 263.23 A 4.038 4.038 0 0 0 76.172 261.519 A 3.395 3.395 0 0 0 74.596 260.503 A 4.358 4.358 0 0 0 73.316 260.324 A 5.037 5.037 0 0 0 72.412 260.402 A 3.43 3.43 0 0 0 70.41 261.492 Q 69.363 262.66 69.363 264.754 A 6.488 6.488 0 0 0 69.445 265.805 A 4.798 4.798 0 0 0 69.848 267.113 A 4.263 4.263 0 0 0 69.942 267.298 A 3.511 3.511 0 0 0 71.223 268.66 Q 72.113 269.199 73.262 269.199 A 5.036 5.036 0 0 0 74.141 269.126 A 3.457 3.457 0 0 0 76.176 268.023 A 3.618 3.618 0 0 0 76.607 267.431 Q 76.958 266.83 77.111 266.057 Z M 70.707 264.754 A 6.567 6.567 0 0 0 70.77 265.692 Q 70.91 266.66 71.363 267.254 Q 72.02 268.113 73.293 268.113 A 3.012 3.012 0 0 0 74.088 268.014 A 2.096 2.096 0 0 0 75.227 267.258 Q 75.887 266.402 75.887 264.754 A 6.471 6.471 0 0 0 75.825 263.832 Q 75.758 263.362 75.615 262.982 A 2.67 2.67 0 0 0 75.227 262.273 A 2.133 2.133 0 0 0 73.9 261.482 A 3.271 3.271 0 0 0 73.277 261.426 A 3.086 3.086 0 0 0 72.509 261.516 A 2.066 2.066 0 0 0 71.355 262.262 A 2.681 2.681 0 0 0 70.939 263.067 Q 70.816 263.437 70.758 263.89 A 6.853 6.853 0 0 0 70.707 264.754 Z" id="front_labelLayer" stroke="#777777" fill="#777777" style="stroke:#777777;fill:#777777" vector-effect="non-scaling-stroke"/><path d="M 156 223 L 156 251 L 153 251 L 153 275 L 156 275 L 156 299 L 156 303 L 168 303 L 168 300 L 192 300 L 192 303 L 216 303 L 216 300 L 240 300 L 240 303 L 264 303 L 264 300 L 288 300 L 288 303 L 300 303 L 300 275 L 303 275 L 303 251 L 300 251 L 300 227 L 300 223 L 288 223 L 288 226 L 264 226 L 264 223 L 240 223 L 240 226 L 216 226 L 216 223 L 192 223 L 192 226 L 168 226 L 168 223 L 156 223 Z" id="left_outsideCutPath" stroke="#FF0000" stroke-width="0.1" style="stroke:#FF0000;stroke-width:0.1" vector-effect="non-scaling-stroke"/><path d="M 233.691 260.48 L 233.691 261.488 L 231.512 261.488 L 231.512 269.043 L 230.215 269.043 L 230.215 261.488 L 228.684 261.488 L 228.684 260.902 L 230.215 260.433 L 230.215 259.957 A 5.256 5.256 0 0 1 230.338 258.766 Q 230.717 257.141 232.27 256.86 A 3.942 3.942 0 0 1 232.973 256.801 A 4.176 4.176 0 0 1 233.564 256.846 Q 234.024 256.912 234.566 257.074 L 234.23 258.113 Q 233.698 257.941 233.275 257.891 A 2.789 2.789 0 0 0 232.949 257.871 A 1.749 1.749 0 0 0 232.528 257.919 A 1.123 1.123 0 0 0 231.863 258.359 A 1.501 1.501 0 0 0 231.665 258.759 Q 231.512 259.214 231.512 259.926 L 231.512 260.48 L 233.691 260.48 Z M 227.621 264.176 L 227.621 264.996 L 221.723 264.996 A 5.205 5.205 0 0 0 221.814 265.867 Q 221.907 266.342 222.095 266.717 A 2.435 2.435 0 0 0 222.484 267.285 A 2.357 2.357 0 0 0 223.722 267.982 A 3.571 3.571 0 0 0 224.52 268.066 A 6.85 6.85 0 0 0 227.085 267.558 A 7.848 7.848 0 0 0 227.254 267.488 L 227.254 268.644 A 7.786 7.786 0 0 1 226.544 268.912 A 5.954 5.954 0 0 1 225.953 269.07 Q 225.34 269.199 224.473 269.199 A 5.04 5.04 0 0 1 223.212 269.05 A 3.568 3.568 0 0 1 221.477 268.043 Q 220.442 266.953 220.383 265.066 A 7.408 7.408 0 0 1 220.379 264.832 Q 220.379 262.762 221.398 261.543 A 3.323 3.323 0 0 1 223.821 260.335 A 4.585 4.585 0 0 1 224.137 260.324 A 3.951 3.951 0 0 1 225.249 260.473 A 3.006 3.006 0 0 1 226.684 261.383 Q 227.621 262.441 227.621 264.176 Z M 239.191 267.972 L 239.191 268.965 A 1.276 1.276 0 0 1 239.04 269.025 Q 238.852 269.087 238.57 269.133 A 5.621 5.621 0 0 1 238.204 269.18 Q 238.031 269.197 237.876 269.199 A 3.325 3.325 0 0 1 237.832 269.199 A 3.387 3.387 0 0 1 236.834 269.065 Q 235.737 268.726 235.449 267.534 A 4.076 4.076 0 0 1 235.348 266.582 L 235.348 261.488 L 234.121 261.488 L 234.121 260.863 L 235.348 260.324 L 235.895 258.496 L 236.645 258.496 L 236.645 260.48 L 239.129 260.48 L 239.129 261.488 L 236.645 261.488 L 236.645 266.527 A 2.611 2.611 0 0 0 236.682 266.986 Q 236.762 267.433 237.012 267.715 Q 237.379 268.129 238.02 268.129 A 4.259 4.259 0 0 0 238.643 268.084 A 3.925 3.925 0 0 0 238.684 268.078 Q 238.989 268.029 239.174 267.977 A 1.951 1.951 0 0 0 239.191 267.972 Z M 218.105 256.887 L 218.105 269.043 L 216.809 269.043 L 216.809 256.887 L 218.105 256.887 Z M 221.754 263.941 L 226.23 263.941 Q 226.23 262.715 225.684 262.062 A 1.777 1.777 0 0 0 224.614 261.453 A 2.665 2.665 0 0 0 224.121 261.41 A 2.556 2.556 0 0 0 223.383 261.511 A 1.975 1.975 0 0 0 222.477 262.082 Q 221.863 262.754 221.754 263.941 Z" id="left_labelLayer" stroke="#777777" fill="#777777" style="stroke:#777777;fill:#777777" vector-effect="non-scaling-stroke"/><path d="M 309 156 L 309 168 L 306 168 L 306 192 L 309 192 L 309 216 L 306 216 L 306 240 L 309 240 L 309 264 L 306 264 L 306 288 L 309 288 L 309 300 L 321 300 L 321 303 L 345 303 L 345 300 L 369 300 L 369 303 L 393 303 L 393 300 L 417 300 L 417 303 L 441 303 L 441 300 L 453 300 L 453 288 L 456 288 L 456 264 L 453 264 L 453 240 L 456 240 L 456 216 L 453 216 L 453 192 L 456 192 L 456 168 L 453 168 L 453 156 L 441 156 L 441 153 L 417 153 L 417 156 L 393 156 L 393 153 L 369 153 L 369 156 L 345 156 L 345 153 L 321 153 L 321 156 L 309 156 Z" id="top_outsideCutPath" stroke="#FF0000" stroke-width="0.1" style="stroke:#FF0000;stroke-width:0.1" vector-effect="non-scaling-stroke"/><path d="M 391.781 232.219 L 391.605 232.219 Q 391.781 233.625 391.781 234.885 L 391.781 241.491 L 389.349 241.491 L 389.349 218.229 L 391.327 218.229 L 391.664 220.427 L 391.781 220.427 A 6.545 6.545 0 0 1 392.728 219.352 A 5.061 5.061 0 0 1 393.964 218.522 A 6.09 6.09 0 0 1 395.709 218.012 A 7.882 7.882 0 0 1 396.82 217.937 A 7.454 7.454 0 0 1 398.926 218.218 A 5.509 5.509 0 0 1 401.749 220.119 Q 403.485 222.302 403.485 226.242 A 14.257 14.257 0 0 1 403.296 228.641 Q 402.908 230.914 401.72 232.387 A 5.757 5.757 0 0 1 397.629 234.539 A 8.247 8.247 0 0 1 396.82 234.577 A 7.376 7.376 0 0 1 394.967 234.351 A 6.418 6.418 0 0 1 393.956 233.999 A 5.386 5.386 0 0 1 391.781 232.219 Z M 368.021 232.277 L 368.021 234.138 A 2.392 2.392 0 0 1 367.738 234.25 Q 367.386 234.367 366.857 234.453 Q 366.139 234.569 365.555 234.577 A 6.232 6.232 0 0 1 365.473 234.577 A 6.351 6.351 0 0 1 363.601 234.325 Q 361.544 233.69 361.005 231.456 A 7.643 7.643 0 0 1 360.814 229.67 L 360.814 220.119 L 358.515 220.119 L 358.515 218.947 L 360.814 217.937 L 361.84 214.509 L 363.246 214.509 L 363.246 218.229 L 367.904 218.229 L 367.904 220.119 L 363.246 220.119 L 363.246 229.567 Q 363.246 230.586 363.586 231.273 A 2.359 2.359 0 0 0 363.934 231.794 A 2.259 2.259 0 0 0 365.323 232.533 A 3.25 3.25 0 0 0 365.824 232.57 A 7.986 7.986 0 0 0 366.994 232.487 A 7.359 7.359 0 0 0 367.069 232.475 A 13.154 13.154 0 0 0 367.42 232.415 Q 367.78 232.348 368.021 232.277 Z M 384.864 228.686 A 12.56 12.56 0 0 0 385.087 226.242 A 14.272 14.272 0 0 0 385.082 225.856 Q 385.045 224.519 384.756 223.384 A 7.572 7.572 0 0 0 383.102 220.178 A 6.366 6.366 0 0 0 380.147 218.272 A 8.171 8.171 0 0 0 377.748 217.937 A 9.444 9.444 0 0 0 376.052 218.082 A 6.432 6.432 0 0 0 372.299 220.126 Q 370.336 222.316 370.336 226.242 A 12.165 12.165 0 0 0 370.489 228.213 A 8.995 8.995 0 0 0 371.244 230.666 A 7.992 7.992 0 0 0 371.421 231.013 A 6.583 6.583 0 0 0 373.822 233.566 A 6.771 6.771 0 0 0 375.376 234.257 A 7.809 7.809 0 0 0 377.645 234.577 A 9.442 9.442 0 0 0 379.294 234.439 A 6.483 6.483 0 0 0 383.109 232.373 A 6.783 6.783 0 0 0 383.917 231.263 Q 384.576 230.136 384.864 228.686 Z M 372.855 226.242 A 12.314 12.314 0 0 0 372.973 228.001 Q 373.102 228.894 373.373 229.618 A 5.101 5.101 0 0 0 374.086 230.93 A 3.985 3.985 0 0 0 376.681 232.458 A 6.039 6.039 0 0 0 377.704 232.541 A 5.648 5.648 0 0 0 379.194 232.356 A 3.931 3.931 0 0 0 381.329 230.937 A 5.22 5.22 0 0 0 382.142 229.354 Q 382.381 228.622 382.486 227.729 A 12.809 12.809 0 0 0 382.567 226.242 A 12.133 12.133 0 0 0 382.452 224.513 Q 382.19 222.696 381.329 221.591 A 4 4 0 0 0 378.843 220.108 A 6.133 6.133 0 0 0 377.675 220.002 A 5.787 5.787 0 0 0 376.234 220.171 A 3.873 3.873 0 0 0 374.071 221.569 A 5.028 5.028 0 0 0 373.29 223.08 Q 372.855 224.386 372.855 226.242 Z M 391.781 225.7 L 391.781 226.242 A 16.078 16.078 0 0 0 391.861 227.904 Q 392.036 229.581 392.595 230.601 A 3.668 3.668 0 0 0 392.909 231.083 A 3.528 3.528 0 0 0 394.699 232.291 Q 395.297 232.479 396.026 232.525 A 7.819 7.819 0 0 0 396.527 232.541 A 4.097 4.097 0 0 0 398.12 232.242 Q 399.039 231.858 399.695 230.983 A 4.845 4.845 0 0 0 399.786 230.856 Q 400.966 229.172 400.966 226.213 A 12.271 12.271 0 0 0 400.851 224.473 Q 400.724 223.591 400.458 222.874 A 5.155 5.155 0 0 0 399.786 221.606 A 3.783 3.783 0 0 0 397.02 220.03 A 5.232 5.232 0 0 0 396.469 220.002 A 7.006 7.006 0 0 0 395.16 220.116 Q 394.431 220.255 393.871 220.563 A 3.213 3.213 0 0 0 392.909 221.364 Q 391.881 222.64 391.789 225.327 A 15.476 15.476 0 0 0 391.781 225.7 Z" id="top_labelLayer" stroke="#777777" fill="#777777" style="stroke:#777777;fill:#777777" vector-effect="non-scaling-stroke"/><path d="M 0 140 L 0 168 L 3 168 L 3 192 L 0 192 L 0 216 L 0 220 L 15 220 L 15 217 L 39 217 L 39 220 L 63 220 L 63 217 L 87 217 L 87 220 L 111 220 L 111 217 L 135 217 L 135 220 L 150 220 L 150 192 L 147 192 L 147 168 L 150 168 L 150 144 L 150 140 L 135 140 L 135 143 L 111 143 L 111 140 L 87 140 L 87 143 L 63 143 L 63 140 L 39 140 L 39 143 L 15 143 L 15 140 L 0 140 Z" id="back_outsideCutPath" stroke="#FF0000" stroke-width="0.1" style="stroke:#FF0000;stroke-width:0.1" vector-effect="non-scaling-stroke"/><path d="M 85.953 181.617 L 86.016 181.617 Q 86.273 181.252 86.736 180.713 A 27.864 27.864 0 0 1 87.039 180.367 L 89.805 177.437 L 91.344 177.437 L 87.875 181.086 L 91.586 186 L 90.016 186 L 86.992 181.953 L 86.016 182.797 L 86.016 186 L 84.734 186 L 84.734 173.844 L 86.016 173.844 L 86.016 180.289 Q 86.016 180.719 85.953 181.617 Z M 59.711 184.898 L 59.617 184.898 L 59.344 186 L 58.414 186 L 58.414 173.844 L 59.711 173.844 L 59.711 176.797 A 27.039 27.039 0 0 1 59.696 177.71 Q 59.681 178.171 59.648 178.578 L 59.711 178.578 A 2.949 2.949 0 0 1 61.863 177.328 A 4.429 4.429 0 0 1 62.398 177.297 A 3.964 3.964 0 0 1 63.514 177.446 A 2.967 2.967 0 0 1 65.02 178.449 Q 65.953 179.601 65.953 181.711 Q 65.953 183.199 65.484 184.219 A 3.645 3.645 0 0 1 65.012 184.988 A 3.07 3.07 0 0 1 62.83 186.136 A 4.399 4.399 0 0 1 62.398 186.156 A 3.934 3.934 0 0 1 61.41 186.036 A 3.423 3.423 0 0 1 60.871 185.848 A 2.872 2.872 0 0 1 59.711 184.898 Z M 74.445 186 L 73.484 186 L 73.227 184.781 L 73.164 184.781 Q 72.523 185.586 71.887 185.871 Q 71.25 186.156 70.297 186.156 Q 69.023 186.156 68.301 185.5 A 2.132 2.132 0 0 1 67.658 184.376 A 3.263 3.263 0 0 1 67.578 183.633 A 2.244 2.244 0 0 1 68.855 181.515 Q 69.805 181.009 71.463 180.925 A 12.668 12.668 0 0 1 71.727 180.914 L 73.18 180.867 L 73.18 180.336 Q 73.18 179.72 73.018 179.301 A 1.447 1.447 0 0 0 72.746 178.848 Q 72.313 178.367 71.359 178.367 A 4.222 4.222 0 0 0 70.388 178.488 Q 69.942 178.594 69.457 178.791 A 8.685 8.685 0 0 0 68.938 179.023 L 68.539 178.031 A 5.979 5.979 0 0 1 69.693 177.557 A 6.806 6.806 0 0 1 69.926 177.492 A 6.006 6.006 0 0 1 71.438 177.297 Q 72.395 177.297 73.043 177.563 A 2.207 2.207 0 0 1 73.707 177.976 A 2.054 2.054 0 0 1 74.237 178.794 Q 74.361 179.13 74.411 179.547 A 5.103 5.103 0 0 1 74.445 180.156 L 74.445 186 Z M 82.828 177.726 L 82.43 178.828 Q 82 178.656 81.492 178.543 A 5.357 5.357 0 0 0 81.085 178.467 Q 80.886 178.439 80.709 178.432 A 2.875 2.875 0 0 0 80.594 178.43 A 2.877 2.877 0 0 0 79.426 178.649 Q 78.201 179.189 78.017 181.055 A 7.166 7.166 0 0 0 77.984 181.758 A 6.281 6.281 0 0 0 78.047 182.672 Q 78.115 183.136 78.259 183.513 A 2.69 2.69 0 0 0 78.621 184.18 A 2.06 2.06 0 0 0 79.956 184.977 A 3.138 3.138 0 0 0 80.508 185.023 A 5.429 5.429 0 0 0 82.005 184.805 A 6.703 6.703 0 0 0 82.703 184.562 L 82.703 185.711 A 3.689 3.689 0 0 1 81.801 186.03 Q 81.233 186.156 80.539 186.156 A 4.847 4.847 0 0 1 79.36 186.021 A 3.287 3.287 0 0 1 77.66 185.012 Q 76.78 184.023 76.66 182.326 A 7.842 7.842 0 0 1 76.641 181.773 A 7.156 7.156 0 0 1 76.751 180.472 Q 76.886 179.746 77.183 179.174 A 3.575 3.575 0 0 1 77.676 178.453 A 3.358 3.358 0 0 1 79.515 177.396 A 5.091 5.091 0 0 1 80.625 177.281 A 5.852 5.852 0 0 1 81.859 177.414 A 6.473 6.473 0 0 1 82.219 177.502 Q 82.586 177.603 82.828 177.726 Z M 60.798 178.705 A 1.725 1.725 0 0 0 60.297 179.144 A 2.22 2.22 0 0 0 59.975 179.757 Q 59.759 180.364 59.72 181.288 A 9.992 9.992 0 0 0 59.711 181.711 Q 59.711 183.244 60.145 184.035 A 1.956 1.956 0 0 0 60.313 184.293 Q 60.914 185.07 62.242 185.07 Q 63.438 185.07 64.023 184.199 A 2.977 2.977 0 0 0 64.392 183.402 Q 64.609 182.69 64.609 181.695 A 7.662 7.662 0 0 0 64.563 180.822 Q 64.453 179.867 64.083 179.291 A 2.151 2.151 0 0 0 64.023 179.203 A 1.891 1.891 0 0 0 62.819 178.441 A 2.999 2.999 0 0 0 62.211 178.383 Q 61.348 178.383 60.798 178.705 Z M 73.148 182.562 L 73.148 181.789 L 71.852 181.844 A 9.522 9.522 0 0 0 71.091 181.899 Q 70.34 181.986 69.87 182.194 A 1.992 1.992 0 0 0 69.621 182.324 A 1.384 1.384 0 0 0 68.962 183.328 A 2.048 2.048 0 0 0 68.937 183.648 Q 68.938 184.351 69.363 184.719 Q 69.789 185.086 70.555 185.086 A 3.571 3.571 0 0 0 71.326 185.007 Q 71.863 184.889 72.26 184.59 A 2.165 2.165 0 0 0 72.457 184.422 Q 73.145 183.761 73.148 182.576 A 4.13 4.13 0 0 0 73.148 182.562 Z" id="back_labelLayer" stroke="#777777" fill="#777777" style="stroke:#777777;fill:#777777" vector-effect="non-scaling-stroke"/><path d="M 156 140 L 156 168 L 153 168 L 153 192 L 156 192 L 156 216 L 156 220 L 168 220 L 168 217 L 192 217 L 192 220 L 216 220 L 216 217 L 240 217 L 240 220 L 264 220 L 264 217 L 288 217 L 288 220 L 300 220 L 300 192 L 303 192 L 303 168 L 300 168 L 300 144 L 300 140 L 288 140 L 288 143 L 264 143 L 264 140 L 240 140 L 240 143 L 216 143 L 216 140 L 192 140 L 192 143 L 168 143 L 168 140 L 156 140 Z" id="right_outsideCutPath" stroke="#FF0000" stroke-width="0.1" style="stroke:#FF0000;stroke-width:0.1" vector-effect="non-scaling-stroke"/><path d="M 237.949 184.156 L 236.652 184.156 L 236.652 178.617 A 3.666 3.666 0 0 0 236.61 178.042 Q 236.562 177.74 236.459 177.498 A 1.543 1.543 0 0 0 236.176 177.055 A 1.462 1.462 0 0 0 235.576 176.672 Q 235.341 176.589 235.051 176.558 A 3.438 3.438 0 0 0 234.684 176.539 A 3.925 3.925 0 0 0 233.95 176.603 Q 233.543 176.68 233.23 176.852 A 1.816 1.816 0 0 0 232.711 177.273 A 2.158 2.158 0 0 0 232.345 177.922 Q 232.124 178.517 232.094 179.4 A 8.37 8.37 0 0 0 232.09 179.68 L 232.09 184.156 L 230.793 184.156 L 230.793 172 L 232.09 172 L 232.09 175.68 A 11.666 11.666 0 0 1 232.082 176.128 Q 232.067 176.501 232.027 176.781 L 232.105 176.781 A 2.591 2.591 0 0 1 233.013 175.908 A 3.165 3.165 0 0 1 233.195 175.809 A 3.329 3.329 0 0 1 234.288 175.484 A 4.209 4.209 0 0 1 234.809 175.453 Q 236.379 175.453 237.164 176.199 Q 237.774 176.779 237.91 177.889 A 5.608 5.608 0 0 1 237.949 178.57 L 237.949 184.156 Z M 226.074 175.594 L 229.035 175.594 L 229.035 176.414 L 227.449 176.602 A 2.108 2.108 0 0 1 227.632 176.873 Q 227.712 177.013 227.784 177.181 A 3.998 3.998 0 0 1 227.84 177.316 A 2.495 2.495 0 0 1 227.988 177.912 A 3.204 3.204 0 0 1 228.012 178.312 A 2.973 2.973 0 0 1 227.875 179.234 A 2.405 2.405 0 0 1 227.152 180.32 Q 226.378 180.996 225.084 181.063 A 5.633 5.633 0 0 1 224.793 181.07 A 4.168 4.168 0 0 1 224.311 181.043 A 3.52 3.52 0 0 1 224.074 181.008 A 2.308 2.308 0 0 0 223.702 181.248 Q 223.51 181.404 223.399 181.581 A 0.976 0.976 0 0 0 223.246 182.109 Q 223.246 182.461 223.535 182.629 A 0.91 0.91 0 0 0 223.737 182.712 Q 223.948 182.774 224.27 182.79 A 4.933 4.933 0 0 0 224.527 182.797 L 226.043 182.797 A 5.309 5.309 0 0 1 226.849 182.854 Q 227.271 182.919 227.611 183.057 A 2.344 2.344 0 0 1 228.18 183.383 A 1.897 1.897 0 0 1 228.885 184.591 A 2.85 2.85 0 0 1 228.926 185.086 A 2.808 2.808 0 0 1 228.765 186.057 Q 228.498 186.788 227.785 187.254 A 3.889 3.889 0 0 1 226.782 187.709 Q 226.288 187.859 225.686 187.932 A 10.279 10.279 0 0 1 224.457 188 Q 222.777 188 221.867 187.375 Q 221.016 186.79 220.961 185.755 A 2.739 2.739 0 0 1 220.957 185.609 Q 220.957 184.828 221.457 184.258 A 2.265 2.265 0 0 1 222.235 183.691 A 3.21 3.21 0 0 1 222.863 183.484 A 1.346 1.346 0 0 1 222.341 183.062 A 1.598 1.598 0 0 1 222.312 183.023 A 1.202 1.202 0 0 1 222.092 182.374 A 1.489 1.489 0 0 1 222.09 182.297 A 1.483 1.483 0 0 1 222.165 181.819 A 1.314 1.314 0 0 1 222.34 181.477 A 1.856 1.856 0 0 1 222.585 181.2 Q 222.715 181.078 222.883 180.959 A 4.074 4.074 0 0 1 223.129 180.797 A 2.274 2.274 0 0 1 222.141 180.006 A 2.818 2.818 0 0 1 222.047 179.867 A 2.681 2.681 0 0 1 221.635 178.575 A 3.272 3.272 0 0 1 221.629 178.367 Q 221.629 176.961 222.473 176.199 A 2.754 2.754 0 0 1 223.53 175.616 Q 223.95 175.488 224.455 175.452 A 5.728 5.728 0 0 1 224.863 175.437 A 4.971 4.971 0 0 1 225.521 175.479 A 3.786 3.786 0 0 1 226.074 175.594 Z M 244.551 183.086 L 244.551 184.078 A 1.276 1.276 0 0 1 244.399 184.138 Q 244.212 184.2 243.93 184.246 A 5.621 5.621 0 0 1 243.563 184.294 Q 243.39 184.31 243.235 184.312 A 3.325 3.325 0 0 1 243.191 184.312 A 3.387 3.387 0 0 1 242.193 184.178 Q 241.096 183.84 240.809 182.648 A 4.076 4.076 0 0 1 240.707 181.695 L 240.707 176.602 L 239.48 176.602 L 239.48 175.977 L 240.707 175.437 L 241.254 173.609 L 242.004 173.609 L 242.004 175.594 L 244.488 175.594 L 244.488 176.602 L 242.004 176.602 L 242.004 181.641 A 2.611 2.611 0 0 0 242.042 182.099 Q 242.122 182.547 242.371 182.828 Q 242.738 183.242 243.379 183.242 A 4.259 4.259 0 0 0 244.003 183.198 A 3.925 3.925 0 0 0 244.043 183.191 Q 244.349 183.143 244.533 183.091 A 1.951 1.951 0 0 0 244.551 183.086 Z M 216.379 175.531 L 216.199 176.734 A 5.716 5.716 0 0 0 215.788 176.658 Q 215.583 176.629 215.401 176.62 A 3.042 3.042 0 0 0 215.262 176.617 A 2.247 2.247 0 0 0 213.602 177.334 A 3.074 3.074 0 0 0 213.484 177.461 A 2.962 2.962 0 0 0 212.77 179.124 A 3.936 3.936 0 0 0 212.746 179.562 L 212.746 184.156 L 211.449 184.156 L 211.449 175.594 L 212.52 175.594 L 212.668 177.18 L 212.73 177.18 A 4.38 4.38 0 0 1 213.22 176.48 A 3.345 3.345 0 0 1 213.879 175.891 A 2.585 2.585 0 0 1 215.355 175.437 A 5.954 5.954 0 0 1 215.888 175.46 A 4.345 4.345 0 0 1 216.379 175.531 Z M 219.277 175.594 L 219.277 184.156 L 217.98 184.156 L 217.98 175.594 L 219.277 175.594 Z M 225.629 183.961 L 224.074 183.961 Q 223.191 183.961 222.699 184.383 A 1.367 1.367 0 0 0 222.25 185.158 A 2.075 2.075 0 0 0 222.207 185.594 A 1.302 1.302 0 0 0 222.293 186.077 Q 222.416 186.388 222.717 186.598 A 1.522 1.522 0 0 0 222.793 186.648 Q 223.379 187.008 224.473 187.008 Q 226.105 187.008 226.891 186.519 A 1.892 1.892 0 0 0 227.33 186.152 A 1.418 1.418 0 0 0 227.676 185.195 A 1.755 1.755 0 0 0 227.644 184.847 Q 227.603 184.646 227.511 184.497 A 0.817 0.817 0 0 0 227.246 184.23 Q 226.919 184.025 226.152 183.976 A 8.252 8.252 0 0 0 225.629 183.961 Z M 222.91 178.336 A 2.531 2.531 0 0 0 222.962 178.867 Q 223.073 179.382 223.418 179.695 Q 223.875 180.111 224.656 180.152 A 3.339 3.339 0 0 0 224.832 180.156 A 2.825 2.825 0 0 0 225.572 180.068 Q 226.418 179.838 226.646 179.007 A 2.627 2.627 0 0 0 226.73 178.312 A 2.789 2.789 0 0 0 226.635 177.549 Q 226.303 176.383 224.809 176.383 A 2.721 2.721 0 0 0 224.254 176.436 Q 223.914 176.507 223.655 176.672 A 1.493 1.493 0 0 0 223.402 176.875 A 1.556 1.556 0 0 0 223.026 177.509 Q 222.91 177.867 222.91 178.336 Z M 218.09 172.621 A 0.607 0.607 0 0 0 217.956 172.811 Q 217.871 172.996 217.871 173.273 A 1.531 1.531 0 0 0 217.878 173.42 Q 217.909 173.749 218.09 173.926 A 0.728 0.728 0 0 0 218.353 174.093 A 0.824 0.824 0 0 0 218.637 174.141 A 0.757 0.757 0 0 0 219.176 173.926 Q 219.402 173.711 219.402 173.273 A 1.484 1.484 0 0 0 219.396 173.133 Q 219.364 172.8 219.176 172.625 A 0.764 0.764 0 0 0 218.637 172.414 A 0.99 0.99 0 0 0 218.571 172.416 A 0.75 0.75 0 0 0 218.09 172.621 Z" id="right_labelLayer" stroke="#777777" fill="#777777" style="stroke:#777777;fill:#777777" vector-effect="non-scaling-stroke"/><path d="M 309 3 L 309 15 L 306 15 L 306 39 L 309 39 L 309 63 L 306 63 L 306 87 L 309 87 L 309 111 L 306 111 L 306 135 L 309 135 L 309 147 L 321 147 L 321 150 L 345 150 L 345 147 L 369 147 L 369 150 L 393 150 L 393 147 L 417 147 L 417 150 L 441 150 L 441 147 L 453 147 L 453 135 L 456 135 L 456 111 L 453 111 L 453 87 L 456 87 L 456 63 L 453 63 L 453 39 L 456 39 L 456 15 L 453 15 L 453 3 L 441 3 L 441 0 L 417 0 L 417 3 L 393 3 L 393 0 L 369 0 L 369 3 L 345 3 L 345 0 L 321 0 L 321 3 L 309 3 Z" id="bottom_outsideCutPath" stroke="#FF0000" stroke-width="0.1" style="stroke:#FF0000;stroke-width:0.1" vector-effect="non-scaling-stroke"/><path d="M 430.351 86.25 L 427.919 86.25 L 427.919 75.805 A 7.174 7.174 0 0 0 427.847 74.75 Q 427.675 73.601 427.099 72.927 Q 426.278 71.967 424.55 71.967 A 6.257 6.257 0 0 0 423.276 72.088 Q 421.949 72.365 421.195 73.271 A 4.018 4.018 0 0 0 420.514 74.504 Q 420.111 75.633 420.111 77.285 L 420.111 86.25 L 417.68 86.25 L 417.68 75.805 A 7.174 7.174 0 0 0 417.607 74.75 Q 417.436 73.601 416.859 72.927 A 2.551 2.551 0 0 0 415.686 72.164 Q 415.264 72.026 414.748 71.985 A 5.694 5.694 0 0 0 414.296 71.967 A 6.039 6.039 0 0 0 413.047 72.088 Q 412.276 72.251 411.702 72.634 A 3.187 3.187 0 0 0 410.949 73.337 Q 409.986 74.578 409.896 77.257 A 16.93 16.93 0 0 0 409.887 77.827 L 409.887 86.25 L 407.455 86.25 L 407.455 70.195 L 409.433 70.195 L 409.828 72.392 L 409.945 72.392 A 4.779 4.779 0 0 1 411.886 70.561 A 5.773 5.773 0 0 1 414.166 69.921 A 6.973 6.973 0 0 1 414.691 69.902 A 7.961 7.961 0 0 1 416.483 70.089 Q 417.586 70.344 418.354 70.947 A 4.151 4.151 0 0 1 419.613 72.627 L 419.73 72.627 A 5.077 5.077 0 0 1 421.643 70.728 A 6.1 6.1 0 0 1 421.81 70.634 A 6.154 6.154 0 0 1 424.068 69.948 A 7.674 7.674 0 0 1 424.916 69.902 A 8.453 8.453 0 0 1 426.449 70.032 Q 427.301 70.189 427.967 70.538 A 4.007 4.007 0 0 1 428.996 71.301 A 4.187 4.187 0 0 1 429.895 72.772 Q 430.137 73.42 430.25 74.227 A 11.153 11.153 0 0 1 430.351 75.776 L 430.351 86.25 Z M 334.081 84.184 L 333.905 84.184 L 333.393 86.25 L 331.649 86.25 L 331.649 63.457 L 334.081 63.457 L 334.081 68.994 Q 334.081 70.854 333.964 72.334 L 334.081 72.334 Q 335.78 69.931 339.12 69.931 A 7.432 7.432 0 0 1 341.212 70.21 A 5.563 5.563 0 0 1 344.035 72.092 Q 345.785 74.253 345.785 78.208 A 14.257 14.257 0 0 1 345.596 80.607 Q 345.208 82.879 344.02 84.353 A 5.757 5.757 0 0 1 339.929 86.504 A 8.247 8.247 0 0 1 339.12 86.543 A 7.376 7.376 0 0 1 337.267 86.317 A 6.418 6.418 0 0 1 336.256 85.964 A 5.386 5.386 0 0 1 334.081 84.184 Z M 375.536 84.243 L 375.536 86.103 A 2.392 2.392 0 0 1 375.252 86.216 Q 374.9 86.332 374.372 86.418 Q 373.654 86.534 373.07 86.542 A 6.232 6.232 0 0 1 372.987 86.543 A 6.351 6.351 0 0 1 371.116 86.291 Q 369.058 85.656 368.52 83.421 A 7.643 7.643 0 0 1 368.329 81.635 L 368.329 72.085 L 366.029 72.085 L 366.029 70.913 L 368.329 69.902 L 369.354 66.474 L 370.761 66.474 L 370.761 70.195 L 375.419 70.195 L 375.419 72.085 L 370.761 72.085 L 370.761 81.533 Q 370.761 82.552 371.101 83.238 A 2.359 2.359 0 0 0 371.449 83.759 A 2.259 2.259 0 0 0 372.838 84.499 A 3.25 3.25 0 0 0 373.339 84.536 A 7.986 7.986 0 0 0 374.509 84.452 A 7.359 7.359 0 0 0 374.584 84.441 A 13.154 13.154 0 0 0 374.935 84.38 Q 375.294 84.313 375.536 84.243 Z M 386.127 84.243 L 386.127 86.103 A 2.392 2.392 0 0 1 385.843 86.216 Q 385.491 86.332 384.962 86.418 Q 384.244 86.534 383.66 86.542 A 6.232 6.232 0 0 1 383.578 86.543 A 6.351 6.351 0 0 1 381.706 86.291 Q 379.649 85.656 379.111 83.421 A 7.643 7.643 0 0 1 378.92 81.635 L 378.92 72.085 L 376.62 72.085 L 376.62 70.913 L 378.92 69.902 L 379.945 66.474 L 381.351 66.474 L 381.351 70.195 L 386.01 70.195 L 386.01 72.085 L 381.351 72.085 L 381.351 81.533 Q 381.351 82.552 381.691 83.238 A 2.359 2.359 0 0 0 382.04 83.759 A 2.259 2.259 0 0 0 383.429 84.499 A 3.25 3.25 0 0 0 383.93 84.536 A 7.986 7.986 0 0 0 385.099 84.452 A 7.359 7.359 0 0 0 385.175 84.441 A 13.154 13.154 0 0 0 385.526 84.38 Q 385.885 84.313 386.127 84.243 Z M 363.667 80.651 A 12.56 12.56 0 0 0 363.891 78.208 A 14.272 14.272 0 0 0 363.885 77.822 Q 363.849 76.485 363.56 75.35 A 7.572 7.572 0 0 0 361.906 72.143 A 6.366 6.366 0 0 0 358.95 70.237 A 8.171 8.171 0 0 0 356.552 69.902 A 9.444 9.444 0 0 0 354.855 70.048 A 6.432 6.432 0 0 0 351.102 72.092 Q 349.14 74.282 349.14 78.208 A 12.165 12.165 0 0 0 349.292 80.178 A 8.995 8.995 0 0 0 350.048 82.631 A 7.992 7.992 0 0 0 350.225 82.978 A 6.583 6.583 0 0 0 352.626 85.532 A 6.771 6.771 0 0 0 354.18 86.223 A 7.809 7.809 0 0 0 356.449 86.543 A 9.442 9.442 0 0 0 358.098 86.405 A 6.483 6.483 0 0 0 361.913 84.338 A 6.783 6.783 0 0 0 362.721 83.228 Q 363.38 82.101 363.667 80.651 Z M 402.969 80.651 A 12.56 12.56 0 0 0 403.192 78.208 A 14.272 14.272 0 0 0 403.187 77.822 Q 403.151 76.485 402.862 75.35 A 7.572 7.572 0 0 0 401.207 72.143 A 6.366 6.366 0 0 0 398.252 70.237 A 8.171 8.171 0 0 0 395.853 69.902 A 9.444 9.444 0 0 0 394.157 70.048 A 6.432 6.432 0 0 0 390.404 72.092 Q 388.441 74.282 388.441 78.208 A 12.165 12.165 0 0 0 388.594 80.178 A 8.995 8.995 0 0 0 389.35 82.631 A 7.992 7.992 0 0 0 389.527 82.978 A 6.583 6.583 0 0 0 391.928 85.532 A 6.771 6.771 0 0 0 393.482 86.223 A 7.809 7.809 0 0 0 395.751 86.543 A 9.442 9.442 0 0 0 397.4 86.405 A 6.483 6.483 0 0 0 401.215 84.338 A 6.783 6.783 0 0 0 402.022 83.228 Q 402.681 82.101 402.969 80.651 Z M 351.659 78.208 A 12.314 12.314 0 0 0 351.776 79.967 Q 351.906 80.86 352.177 81.583 A 5.101 5.101 0 0 0 352.89 82.895 A 3.985 3.985 0 0 0 355.485 84.424 A 6.039 6.039 0 0 0 356.508 84.506 A 5.648 5.648 0 0 0 357.998 84.321 A 3.931 3.931 0 0 0 360.133 82.902 A 5.22 5.22 0 0 0 360.946 81.319 Q 361.185 80.588 361.29 79.695 A 12.809 12.809 0 0 0 361.371 78.208 A 12.133 12.133 0 0 0 361.256 76.479 Q 360.994 74.662 360.133 73.557 A 4 4 0 0 0 357.646 72.073 A 6.133 6.133 0 0 0 356.478 71.967 A 5.787 5.787 0 0 0 355.038 72.136 A 3.873 3.873 0 0 0 352.875 73.535 A 5.028 5.028 0 0 0 352.093 75.045 Q 351.659 76.352 351.659 78.208 Z M 390.961 78.208 A 12.314 12.314 0 0 0 391.078 79.967 Q 391.207 80.86 391.479 81.583 A 5.101 5.101 0 0 0 392.191 82.895 A 3.985 3.985 0 0 0 394.787 84.424 A 6.039 6.039 0 0 0 395.809 84.506 A 5.648 5.648 0 0 0 397.3 84.321 A 3.931 3.931 0 0 0 399.435 82.902 A 5.22 5.22 0 0 0 400.248 81.319 Q 400.487 80.588 400.591 79.695 A 12.809 12.809 0 0 0 400.673 78.208 A 12.133 12.133 0 0 0 400.558 76.479 Q 400.296 74.662 399.435 73.557 A 4 4 0 0 0 396.948 72.073 A 6.133 6.133 0 0 0 395.78 71.967 A 5.787 5.787 0 0 0 394.339 72.136 A 3.873 3.873 0 0 0 392.177 73.535 A 5.028 5.028 0 0 0 391.395 75.045 Q 390.961 76.352 390.961 78.208 Z M 338.768 71.967 Q 336.278 71.967 335.18 73.396 Q 334.214 74.65 334.097 77.415 A 18.735 18.735 0 0 0 334.081 78.208 A 16.078 16.078 0 0 0 334.161 79.869 Q 334.335 81.546 334.895 82.566 A 3.668 3.668 0 0 0 335.209 83.049 A 3.528 3.528 0 0 0 336.998 84.257 Q 337.597 84.444 338.326 84.491 A 7.819 7.819 0 0 0 338.827 84.506 A 4.847 4.847 0 0 0 340.204 84.322 A 3.497 3.497 0 0 0 342.167 82.873 Q 342.952 81.706 343.176 79.811 A 13.933 13.933 0 0 0 343.266 78.178 A 14.366 14.366 0 0 0 343.179 76.541 Q 342.957 74.611 342.167 73.505 A 3.546 3.546 0 0 0 339.909 72.077 A 5.624 5.624 0 0 0 338.768 71.967 Z" id="bottom_labelLayer" stroke="#777777" fill="#777777" style="stroke:#777777;fill:#777777" vector-effect="non-scaling-stroke"/></g></svg>