0
SECTION
2
HEADER
9
$INSUNITS
70
1
0
ENDSEC
0
SECTION
2
TABLES
0
TABLE
2
LAYER
0
ENDTAB
0
ENDSEC
0
SECTION
2
ENTITIES
0
LINE
8
front_outsideCutPath
10
0
20
83
11
0
21
55
0
LINE
8
front_outsideCutPath
10
0
20
55
11
3
21
55
0
LINE
8
front_outsideCutPath
10
3
20
55
11
3
21
31
0
LINE
8
front_outsideCutPath
10
3
20
31
11
0
21
31
0
LINE
8
front_outsideCutPath
10
0
20
31
11
0
21
7
0
LINE
8
front_outsideCutPath
10
0
20
7
11
0
21
3
0
LINE
8
front_outsideCutPath
10
0
20
3
11
15
21
3
0
LINE
8
front_outsideCutPath
10
15
20
3
11
15
21
6
0
LINE
8
front_outsideCutPath
10
15
20
6
11
39
21
6
0
LINE
8
front_outsideCutPath
10
39
20
6
11
39
21
3
0
LINE
8
front_outsideCutPath
10
39
20
3
11
63
21
3
0
LINE
8
front_outsideCutPath
10
63
20
3
11
63
21
6
0
LINE
8
front_outsideCutPath
10
63
20
6
11
87
21
6
0
LINE
8
front_outsideCutPath
10
87
20
6
11
87
21
3
0
LINE
8
front_outsideCutPath
10
87
20
3
11
111
21
3
0
LINE
8
front_outsideCutPath
10
111
20
3
11
111
21
6
0
LINE
8
front_outsideCutPath
10
111
20
6
11
135
21
6
0
LINE
8
front_outsideCutPath
10
135
20
6
11
135
21
3
0
LINE
8
front_outsideCutPath
10
135
20
3
11
150
21
3
0
LINE
8
front_outsideCutPath
10
150
20
3
11
150
21
31
0
LINE
8
front_outsideCutPath
10
150
20
31
11
147
21
31
0
LINE
8
front_outsideCutPath
10
147
20
31
11
147
21
55
0
LINE
8
front_outsideCutPath
10
147
20
55
11
150
21
55
0
LINE
8
front_outsideCutPath
10
150
20
55
11
150
21
79
0
LINE
8
front_outsideCutPath
10
150
20
79
11
150
21
83
0
LINE
8
front_outsideCutPath
10
150
20
83
11
135
21
83
0
LINE
8
front_outsideCutPath
10
135
20
83
11
135
21
80
0
LINE
8
front_outsideCutPath
10
135
20
80
11
111
21
80
0
LINE
8
front_outsideCutPath
10
111
20
80
11
111
21
83
0
LINE
8
front_outsideCutPath
10
111
20
83
11
87
21
83
0
LINE
8
front_outsideCutPath
10
87
20
83
11
87
21
80
0
LINE
8
front_outsideCutPath
10
87
20
80
11
63
21
80
0
LINE
8
front_outsideCutPath
10
63
20
80
11
63
21
83
0
LINE
8
front_outsideCutPath
10
63
20
83
11
39
21
83
0
LINE
8
front_outsideCutPath
10
39
20
83
11
39
21
80
0
LINE
8
front_outsideCutPath
10
39
20
80
11
15
21
80
0
LINE
8
front_outsideCutPath
10
15
20
80
11
15
21
83
0
LINE
8
front_outsideCutPath
10
15
20
83
11
0
21
83
0
LINE
8
front_labelLayer
10
61.7460937
20
45.5197006
11
61.7460937
21
44.5118881
0
LINE
8
front_labelLayer
10
61.7460937
20
44.5118881
11
59.5664062
21
44.5118881
0
LINE
8
front_labelLayer
10
59.5664062
20
44.5118881
11
59.5664062
21
36.9572006
0
LINE
8
front_labelLayer
10
59.5664062
20
36.9572006
11
58.2695312
21
36.9572006
0
LINE
8
front_labelLayer
10
58.2695312
20
36.9572006
11
58.2695312
21
44.5118881
0
LINE
8
front_labelLayer
10
58.2695312
20
44.5118881
11
56.7382812
21
44.5118881
0
LINE
8
front_labelLayer
10
56.7382812
20
44.5118881
11
56.7382812
21
45.0978256
0
LINE
8
front_labelLayer
10
56.7382812
20
45.0978256
11
58.2695312
21
45.5665756
0
LINE
8
front_labelLayer
10
58.2695312
20
45.5665756
11
58.2695312
21
46.0431381
0
LINE
8
front_labelLayer
10
62.6210937
20
48.9259506
11
62.2851562
21
47.8868881
0
LINE
8
front_labelLayer
10
59.5664062
20
46.0743881
11
59.5664062
21
45.5197006
0
LINE
8
front_labelLayer
10
59.5664062
20
45.5197006
11
61.7460937
21
45.5197006
0
ARC
8
front_labelLayer
10
63.5253247
20
46.1035605
40
5.2561408
50
167.5776172
51
180.6586624
0
ARC
8
front_labelLayer
10
61.0537086
20
46.6797966
40
2.7186086
50
141.7433936
51
168.2322161
0
ARC
8
front_labelLayer
10
60.6512815
20
46.8898326
40
2.2741143
50
98.2551559
51
139.620331
0
ARC
8
front_labelLayer
10
61.0046198
20
45.2575413
40
3.9419123
50
89.669706
51
99.9314304
0
ARC
8
front_labelLayer
10
61.0056044
20
45.0232213
40
4.1762233
50
81.5640647
51
89.7017457
0
ARC
8
front_labelLayer
10
60.7120033
20
42.9748926
40
6.2454708
50
75.9739961
51
81.6564686
0
ARC
8
front_labelLayer
10
60.2082033
20
40.8852287
40
8.3949538
50
73.2963503
51
76.0946352
0
ARC
8
front_labelLayer
10
60.3350337
20
41.8987709
40
6.2976603
50
71.9613634
51
76.5918041
0
ARC
8
front_labelLayer
10
60.8236364
20
43.971466
40
4.1681641
50
76.5183113
51
83.0217261
0
ARC
8
front_labelLayer
10
60.9938131
20
45.3400328
40
2.7890612
50
83.0760593
51
89.7926562
0
ARC
8
front_labelLayer
10
60.9882145
20
46.3801656
40
1.7489804
50
89.48594
51
103.4197374
0
ARC
8
front_labelLayer
10
60.8305308
20
46.9859702
40
1.1231938
50
102.7677284
51
144.3380381
0
ARC
8
front_labelLayer
10
61.1481998
20
46.7815803
40
1.5005723
50
145.0689034
51
162.1801816
0
ARC
8
front_labelLayer
10
62.2373612
20
46.415132
40
2.6496677
50
161.8437745
51
171.7847177
0
ARC
8
front_labelLayer
10
64.0138399
20
46.1483106
40
4.4460553
50
171.6527938
51
178.438324
0
ARC
8
front_labelLayer
10
65.689106
20
46.0768704
40
6.1227002
50
178.1972851
51
180.023229
0
LINE
8
front_labelLayer
10
68.2382812
20
45.5822006
11
68.0585937
21
44.3790756
0
LINE
8
front_labelLayer
10
64.6054687
20
41.5509506
11
64.6054687
21
36.9572006
0
LINE
8
front_labelLayer
10
64.6054687
20
36.9572006
11
63.3085937
21
36.9572006
0
LINE
8
front_labelLayer
10
63.3085937
20
36.9572006
11
63.3085937
21
45.5197006
0
LINE
8
front_labelLayer
10
63.3085937
20
45.5197006
11
64.3789062
21
45.5197006
0
LINE
8
front_labelLayer
10
64.3789062
20
45.5197006
11
64.5273437
21
43.9337631
0
LINE
8
front_labelLayer
10
64.5273437
20
43.9337631
11
64.5898437
21
43.9337631
0
ARC
8
front_labelLayer
10
67.228153
20
39.7222148
40
5.9537507
50
84.9922713
51
90.1280813
0
ARC
8
front_labelLayer
10
67.3711436
20
41.3242106
40
4.3453892
50
78.4891492
51
85.0266376
0
ARC
8
front_labelLayer
10
66.8161724
20
38.8000356
40
5.7157063
50
77.4454105
51
81.6360423
0
ARC
8
front_labelLayer
10
67.0652006
20
40.5165647
40
3.9812118
50
81.5884353
51
87.1916597
0
ARC
8
front_labelLayer
10
67.1192877
20
41.454521
40
3.0417427
50
87.3436103
51
89.9659798
0
ARC
8
front_labelLayer
10
67.1067215
20
42.2492086
40
2.2471004
50
89.6335396
51
137.0880816
0
ARC
8
front_labelLayer
10
67.6582166
20
41.629043
40
3.0742781
50
135.6209563
51
138.8377529
0
ARC
8
front_labelLayer
10
67.5773916
20
41.7079324
40
2.9615112
50
138.9575743
51
174.5422303
0
ARC
8
front_labelLayer
10
68.5419123
20
41.5570138
40
3.9364483
50
173.6907646
51
180.0882507
0
ARC
8
front_labelLayer
10
68.4055336
20
41.7840194
40
4.3795989
50
139.4139392
51
150.6032715
0
ARC
8
front_labelLayer
10
67.6202603
20
42.4569162
40
3.3454596
50
124.2321394
51
139.4161176
0
ARC
8
front_labelLayer
10
67.2003894
20
43.0907105
40
2.5852804
50
89.6796567
51
124.4405686
0
ARC
8
front_labelLayer
10
70.5317243
20
41.2011024
40
6.6988966
50
349.1762012
51
0.3862631
0
ARC
8
front_labelLayer
10
72.78709
20
40.7514921
40
4.3992605
50
330.2507006
51
349.4116472
0
ARC
8
front_labelLayer
10
73.4811852
20
40.3907256
40
3.6177637
50
318.1439573
51
329.7566506
0
ARC
8
front_labelLayer
10
73.6064463
20
40.2903412
40
3.4574948
50
278.8959168
51
317.9979082
0
ARC
8
front_labelLayer
10
73.2836668
20
41.8368007
40
5.035898
50
269.7502859
51
279.8033344
0
ARC
8
front_labelLayer
10
73.2313182
20
40.9654679
40
4.1646282
50
253.5436888
51
270.4182458
0
ARC
8
front_labelLayer
10
73.0926904
20
40.4292147
40
3.6111209
50
238.8115736
51
253.2428111
0
ARC
8
front_labelLayer
10
73.0479442
20
40.33923
40
3.5109796
50
207.794703
51
238.6757998
0
ARC
8
front_labelLayer
10
73.6901776
20
40.7325427
40
4.2627938
50
205.6560831
51
208.4460268
0
ARC
8
front_labelLayer
10
74.1844578
20
40.9384725
40
4.7975876
50
188.9102511
51
205.3171429
0
ARC
8
front_labelLayer
10
75.8509625
20
41.2207257
40
6.4877316
50
179.7744682
51
189.0932982
0
ARC
8
front_labelLayer
10
76.0968089
20
41.2918714
40
6.7336821
50
169.2442988
51
180.3880767
0
ARC
8
front_labelLayer
10
73.8101041
20
41.7438699
40
4.4028317
50
150.7111575
51
169.469544
0
ARC
8
front_labelLayer
10
73.0801244
20
42.1187388
40
3.5829056
50
138.1759663
51
150.2287244
0
ARC
8
front_labelLayer
10
72.9586867
20
42.2119275
40
3.4302876
50
99.175932
51
137.9832767
0
ARC
8
front_labelLayer
10
73.2929029
20
40.6390677
40
5.0369378
50
89.7326461
51
100.0759793
0
ARC
8
front_labelLayer
10
73.3596993
20
41.3183313
40
4.3578344
50
73.5222869
51
90.5692168
0
ARC
8
front_labelLayer
10
73.61526
20
42.2468563
40
3.3950052
50
41.1445676
51
73.2133749
0
ARC
8
front_labelLayer
10
73.1274161
20
41.8275608
40
4.0382607
50
13.5014391
51
41.0703471
0
ARC
8
front_labelLayer
10
71.2426384
20
41.3343386
40
5.9862338
50
1.1277169
51
13.8800126
0
ARC
8
front_labelLayer
10
69.6198679
20
41.2473464
40
7.6106009
50
359.9918443
51
1.5420649
0
ARC
8
front_labelLayer
10
77.2742917
20
41.2125589
40
6.567347
50
179.7059517
51
187.9160706
0
ARC
8
front_labelLayer
10
74.8656126
20
40.8665572
40
4.1339827
50
187.7639522
51
200.0976598
0
ARC
8
front_labelLayer
10
73.5386451
20
40.3803555
40
2.7207473
50
200.0845656
51
216.9131853
0
ARC
8
front_labelLayer
10
73.0540987
20
40.034365
40
2.1255753
50
217.3009467
51
261.7099208
0
ARC
8
front_labelLayer
10
73.2790443
20
41.1077729
40
3.2209149
50
260.5033005
51
270.2476987
0
ARC
8
front_labelLayer
10
73.3219802
20
40.8990593
40
3.0123109
50
269.4481787
51
284.7255674
0
ARC
8
front_labelLayer
10
73.5604481
20
40.0146597
40
2.096352
50
284.5662212
51
322.6333896
0
ARC
8
front_labelLayer
10
73.0028989
20
40.4174641
40
2.7840014
50
323.0089322
51
342.6390441
0
ARC
8
front_labelLayer
10
71.4081966
20
40.9386581
40
4.4616269
50
342.3615742
51
353.7537649
0
ARC
8
front_labelLayer
10
69.055476
20
41.2222484
40
6.8312849
50
353.5363074
51
0.2014182
0
ARC
8
front_labelLayer
10
69.415941
20
41.2792887
40
6.470862
50
359.707576
51
7.8972758
0
ARC
8
front_labelLayer
10
71.7857548
20
41.6190237
40
4.0768595
50
7.7439955
51
20.0690237
0
ARC
8
front_labelLayer
10
73.1063107
20
42.1036198
40
2.6701986
50
20.0256779
51
37.4350666
0
ARC
8
front_labelLayer
10
73.5444531
20
42.4145193
40
2.1333995
50
37.957772
51
80.4006157
0
ARC
8
front_labelLayer
10
73.2954668
20
41.3035587
40
3.2708796
50
79.3453667
51
90.3174619
0
ARC
8
front_labelLayer
10
73.2493656
20
41.4881011
40
3.0864138
50
89.480611
51
103.8805101
0
ARC
8
front_labelLayer
10
72.9900262
20
42.4756631
40
2.0655291
50
103.468519
51
142.3118967
0
ARC
8
front_labelLayer
10
73.4942042
20
42.1210894
40
2.6814262
50
142.9025851
51
162.3749443
0
ARC
8
front_labelLayer
10
75.0828449
20
41.5916789
40
4.3558556
50
162.0653062
51
173.1675044
0
ARC
8
front_labelLayer
10
77.5599956
20
41.275731
40
6.8530279
50
173.0086135
51
180.2463718
0
LINE
8
front_labelLayer
10
86.6601562
20
36.9572006
11
85.3632812
21
36.9572006
0
LINE
8
front_labelLayer
10
85.3632812
20
36.9572006
11
85.3632812
21
42.4962631
0
LINE
8
front_labelLayer
10
80.8007812
20
41.4493881
11
80.8007812
21
36.9572006
0
LINE
8
front_labelLayer
10
80.8007812
20
36.9572006
11
79.5039062
21
36.9572006
0
LINE
8
front_labelLayer
10
79.5039062
20
36.9572006
11
79.5039062
21
45.5197006
0
LINE
8
front_labelLayer
10
79.5039062
20
45.5197006
11
80.5585937
21
45.5197006
0
LINE
8
front_labelLayer
10
80.5585937
20
45.5197006
11
80.7695312
21
44.3478256
0
LINE
8
front_labelLayer
10
80.7695312
20
44.3478256
11
80.8320312
21
44.3478256
0
LINE
8
front_labelLayer
10
86.6601562
20
42.5431381
11
86.6601562
21
36.9572006
0
ARC
8
front_labelLayer
10
81.697394
20
42.517287
40
3.6659475
50
359.6714116
51
8.6877042
0
ARC
8
front_labelLayer
10
83.0560918
20
42.7327648
40
2.2903044
50
8.4931757
51
22.6579516
0
ARC
8
front_labelLayer
10
83.7464196
20
43.0196428
40
1.5427422
50
22.7024126
51
42.3419703
0
ARC
8
front_labelLayer
10
83.8240115
20
43.0545453
40
1.4621218
50
43.3790871
51
71.5385936
0
ARC
8
front_labelLayer
10
83.5338488
20
42.2437559
40
2.3231437
50
71.0827949
51
84.3691365
0
ARC
8
front_labelLayer
10
83.4035959
20
41.136317
40
3.4380831
50
84.019775
51
90.1510624
0
ARC
8
front_labelLayer
10
83.3666702
20
40.6494533
40
3.9250337
50
89.5932947
51
100.3718021
0
ARC
8
front_labelLayer
10
83.0892908
20
42.104765
40
2.4435875
50
100.1176314
51
118.16026
0
ARC
8
front_labelLayer
10
82.8097647
20
42.6528938
40
1.8284618
50
118.5439559
51
139.1926609
0
ARC
8
front_labelLayer
10
83.0534983
20
42.489347
40
2.1201243
50
140.1519169
51
160.3146246
0
ARC
8
front_labelLayer
10
84.5253038
20
41.9380702
40
3.6916859
50
159.953415
51
171.3801439
0
ARC
8
front_labelLayer
10
86.9295843
20
41.5515884
40
6.1267728
50
171.1765791
51
178.3217475
0
ARC
8
front_labelLayer
10
89.1091387
20
41.4528184
40
8.3083581
50
178.0811031
51
180.023656
0
ARC
8
front_labelLayer
10
83.0505348
20
42.9427735
40
2.6260102
50
116.9443042
51
147.6525594
0
ARC
8
front_labelLayer
10
83.3238516
20
42.4856473
40
3.1575716
50
115.8072465
51
117.6068589
0
ARC
8
front_labelLayer
10
83.4636054
20
42.1597838
40
3.5118124
50
94.3226832
51
115.5454246
0
ARC
8
front_labelLayer
10
83.5476573
20
41.4295583
40
4.2463935
50
89.9578497
51
94.7109166
0
ARC
8
front_labelLayer
10
83.5824012
20
40.5557636
40
5.1202846
50
80.558539
51
90.353828
0
ARC
8
front_labelLayer
10
83.9023848
20
42.4092366
40
3.23945
50
65.1094469
51
80.763808
0
ARC
8
front_labelLayer
10
84.2764344
20
43.2377493
40
2.3304816
50
46.5584651
51
64.878241
0
ARC
8
front_labelLayer
10
84.3063738
20
43.3240554
40
2.2475445
50
19.3848611
51
45.5997186
0
ARC
8
front_labelLayer
10
83.0060945
20
42.8361669
40
3.6361605
50
6.9633695
51
19.8363429
0
ARC
8
front_labelLayer
10
81.0006456
20
42.5665322
40
5.6595591
50
359.7631642
51
7.211561
0
LINE
8
front_labelLayer
10
93.2617187
20
38.0275131
11
93.2617187
21
37.0353256
0
LINE
8
front_labelLayer
10
89.4179687
20
39.4181381
11
89.4179687
21
44.5118881
0
LINE
8
front_labelLayer
10
89.4179687
20
44.5118881
11
88.1914062
21
44.5118881
0
LINE
8
front_labelLayer
10
88.1914062
20
44.5118881
11
88.1914062
21
45.1368881
0
LINE
8
front_labelLayer
10
88.1914062
20
45.1368881
11
89.4179687
21
45.6759506
0
LINE
8
front_labelLayer
10
89.4179687
20
45.6759506
11
89.9648437
21
47.5040756
0
LINE
8
front_labelLayer
10
89.9648437
20
47.5040756
11
90.7148437
21
47.5040756
0
LINE
8
front_labelLayer
10
90.7148437
20
47.5040756
11
90.7148437
21
45.5197006
0
LINE
8
front_labelLayer
10
90.7148437
20
45.5197006
11
93.1992187
21
45.5197006
0
LINE
8
front_labelLayer
10
93.1992187
20
45.5197006
11
93.1992187
21
44.5118881
0
LINE
8
front_labelLayer
10
93.1992187
20
44.5118881
11
90.7148437
21
44.5118881
0
LINE
8
front_labelLayer
10
90.7148437
20
44.5118881
11
90.7148437
21
39.4728256
0
ARC
8
front_labelLayer
10
92.0987375
20
42.13037
40
4.2591162
50
269.8803567
51
278.3028318
0
ARC
8
front_labelLayer
10
92.1393945
20
41.7984162
40
3.9247782
50
278.4153127
51
279.0079991
0
ARC
8
front_labelLayer
10
91.6612722
20
44.8527022
40
7.0162574
50
278.9590721
51
280.5103649
0
ARC
8
front_labelLayer
10
92.11693
20
42.4078125
40
4.5292706
50
280.4846589
51
282.6269548
0
ARC
8
front_labelLayer
10
92.5162829
20
40.6336615
40
2.7107303
50
282.5876285
51
285.5795817
0
ARC
8
front_labelLayer
10
92.7156452
20
39.9003354
40
1.9508101
50
285.7239904
51
286.255517
0
ARC
8
front_labelLayer
10
92.7164736
20
38.1885515
40
1.2756262
50
287.9888574
51
295.3047808
0
ARC
8
front_labelLayer
10
92.4087985
20
39.1194209
40
2.2560173
50
283.3069695
51
288.1197178
0
ARC
8
front_labelLayer
10
92.0837649
20
40.4752683
40
3.6502763
50
280.0070407
51
283.3734265
0
ARC
8
front_labelLayer
10
91.8665363
20
41.6540659
40
4.8488964
50
279.1861309
51
280.1143916
0
ARC
8
front_labelLayer
10
91.7328338
20
42.4145687
40
5.6210002
50
275.5260636
51
279.2939685
0
ARC
8
front_labelLayer
10
91.8832571
20
40.8434553
40
4.0427032
50
270.8933019
51
275.5483393
0
ARC
8
front_labelLayer
10
91.9021611
20
40.1256334
40
3.3246827
50
270.0031482
51
270.7604232
0
ARC
8
front_labelLayer
10
91.8500108
20
40.1877974
40
3.3872511
50
253.7848117
51
270.8852531
0
ARC
8
front_labelLayer
10
91.4487117
20
38.8192123
40
1.9610501
50
190.3817602
51
253.8772488
0
ARC
8
front_labelLayer
10
93.4941232
20
39.3722561
40
4.0764128
50
179.3550948
51
192.8477675
0
ARC
8
front_labelLayer
10
93.3262607
20
39.4564927
40
2.6114681
50
179.6416537
51
189.7506186
0
ARC
8
front_labelLayer
10
92.4043608
20
39.2920584
40
1.6750477
50
189.5479202
51
205.787396
0
ARC
8
front_labelLayer
10
92.0255001
20
39.117352
40
1.2579354
50
206.1294055
51
221.4084301
0
ARC
8
front_labelLayer
10
91.9830241
20
39.0851214
40
1.2047661
50
221.5949113
51
262.3505133
0
ARC
8
front_labelLayer
10
92.0840559
20
39.6046592
40
1.7334058
50
261.3265906
51
270.1913121
0
LINE
8
left_outsideCutPath
10
156
20
83
11
156
21
55
0
LINE
8
left_outsideCutPath
10
156
20
55
11
153
21
55
0
LINE
8
left_outsideCutPath
10
153
20
55
11
153
21
31
0
LINE
8
left_outsideCutPath
10
153
20
31
11
156
21
31
0
LINE
8
left_outsideCutPath
10
156
20
31
11
156
21
7
0
LINE
8
left_outsideCutPath
10
156
20
7
11
156
21
3
0
LINE
8
left_outsideCutPath
10
156
20
3
11
168
21
3
0
LINE
8
left_outsideCutPath
10
168
20
3
11
168
21
6
0
LINE
8
left_outsideCutPath
10
168
20
6
11
192
21
6
0
LINE
8
left_outsideCutPath
10
192
20
6
11
192
21
3
0
LINE
8
left_outsideCutPath
10
192
20
3
11
216
21
3
0
LINE
8
left_outsideCutPath
10
216
20
3
11
216
21
6
0
LINE
8
left_outsideCutPath
10
216
20
6
11
240
21
6
0
LINE
8
left_outsideCutPath
10
240
20
6
11
240
21
3
0
LINE
8
left_outsideCutPath
10
240
20
3
11
264
21
3
0
LINE
8
left_outsideCutPath
10
264
20
3
11
264
21
6
0
LINE
8
left_outsideCutPath
10
264
20
6
11
288
21
6
0
LINE
8
left_outsideCutPath
10
288
20
6
11
288
21
3
0
LINE
8
left_outsideCutPath
10
288
20
3
11
300
21
3
0
LINE
8
left_outsideCutPath
10
300
20
3
11
300
21
31
0
LINE
8
left_outsideCutPath
10
300
20
31
11
303
21
31
0
LINE
8
left_outsideCutPath
10
303
20
31
11
303
21
55
0
LINE
8
left_outsideCutPath
10
303
20
55
11
300
21
55
0
LINE
8
left_outsideCutPath
10
300
20
55
11
300
21
79
0
LINE
8
left_outsideCutPath
10
300
20
79
11
300
21
83
0
LINE
8
left_outsideCutPath
10
300
20
83
11
288
21
83
0
LINE
8
left_outsideCutPath
10
288
20
83
11
288
21
80
0
LINE
8
left_outsideCutPath
10
288
20
80
11
264
21
80
0
LINE
8
left_outsideCutPath
10
264
20
80
11
264
21
83
0
LINE
8
left_outsideCutPath
10
264
20
83
11
240
21
83
0
LINE
8
left_outsideCutPath
10
240
20
83
11
240
21
80
0
LINE
8
left_outsideCutPath
10
240
20
80
11
216
21
80
0
LINE
8
left_outsideCutPath
10
216
20
80
11
216
21
83
0
LINE
8
left_outsideCutPath
10
216
20
83
11
192
21
83
0
LINE
8
left_outsideCutPath
10
192
20
83
11
192
21
80
0
LINE
8
left_outsideCutPath
10
192
20
80
11
168
21
80
0
LINE
8
left_outsideCutPath
10
168
20
80
11
168
21
83
0
LINE
8
left_outsideCutPath
10
168
20
83
11
156
21
83
0
LINE
8
left_labelLayer
10
218.1054687
20
49.1134506
11
218.1054687
21
36.9572006
0
LINE
8
left_labelLayer
10
218.1054687
20
36.9572006
11
216.8085937
21
36.9572006
0
LINE
8
left_labelLayer
10
216.8085937
20
36.9572006
11
216.8085937
21
49.1134506
0
LINE
8
left_labelLayer
10
216.8085937
20
49.1134506
11
218.1054687
21
49.1134506
0
LINE
8
left_labelLayer
10
227.6210937
20
41.8243881
11
227.6210937
21
41.0040756
0
LINE
8
left_labelLayer
10
227.6210937
20
41.0040756
11
221.7226562
21
41.0040756
0
LINE
8
left_labelLayer
10
227.2539062
20
38.5118881
11
227.2539062
21
37.3556381
0
LINE
8
left_labelLayer
10
221.7539062
20
42.0587631
11
226.2304687
21
42.0587631
0
ARC
8
left_labelLayer
10
224.4300144
20
41.8403675
40
5.0395973
50
256.0087887
51
270.4848064
0
ARC
8
left_labelLayer
10
224.0630323
20
40.4156683
40
3.5684575
50
223.546581
51
256.1956972
0
ARC
8
left_labelLayer
10
224.2654777
20
40.5628082
40
3.8167052
50
194.0877221
51
223.0538198
0
ARC
8
left_labelLayer
10
226.1204313
20
41.0700717
40
5.7394841
50
181.3574416
51
194.492008
0
ARC
8
left_labelLayer
10
227.7868246
20
41.1666852
40
7.4079186
50
179.9887624
51
181.7991586
0
ARC
8
left_labelLayer
10
227.1886215
20
41.213818
40
6.8098685
50
168.9539306
51
180.384337
0
ARC
8
left_labelLayer
10
224.9645458
20
41.6666772
40
4.5402673
50
149.407099
51
169.1853769
0
ARC
8
left_labelLayer
10
224.3448797
20
41.9940816
40
3.8403745
50
140.1055981
51
148.9067248
0
ARC
8
left_labelLayer
10
223.9641823
20
42.3450678
40
3.3232742
50
92.4762638
51
140.5386341
0
ARC
8
left_labelLayer
10
224.1338264
20
41.0913766
40
4.584575
50
89.9638531
51
93.9176202
0
ARC
8
left_labelLayer
10
224.1743016
20
41.7250503
40
3.951079
50
74.2125816
51
90.5450092
0
ARC
8
left_labelLayer
10
224.42177
20
42.6368291
40
3.0063826
50
41.206463
51
74.02327
0
ARC
8
left_labelLayer
10
223.9531112
20
42.2312397
40
3.6261674
50
11.5994295
51
41.1495971
0
ARC
8
left_labelLayer
10
222.3428294
20
41.8598771
40
5.2783836
50
359.6147717
51
12.0336471
0
ARC
8
left_labelLayer
10
226.9267976
20
41.1080635
40
5.2051802
50
181.1447181
51
190.8007151
0
ARC
8
left_labelLayer
10
225.0904614
20
40.7458849
40
3.3335253
50
190.6005633
51
206.0275362
0
ARC
8
left_labelLayer
10
224.2780116
20
40.3617939
40
2.4349578
50
206.2950268
51
222.555788
0
ARC
8
left_labelLayer
10
224.2060195
20
40.3240998
40
2.3565271
50
223.0644999
51
258.1401381
0
ARC
8
left_labelLayer
10
224.4926151
20
41.5041862
40
3.5705247
50
257.5311794
51
270.4319235
0
ARC
8
left_labelLayer
10
224.4958132
20
44.7832357
40
6.8495137
50
270.1984007
51
292.2090359
0
ARC
8
left_labelLayer
10
224.1669244
20
45.7277974
40
7.8484906
50
291.8254572
51
293.1613457
0
ARC
8
left_labelLayer
10
224.1511213
20
44.4962712
40
7.7856224
50
287.9023213
51
293.48616
0
ARC
8
left_labelLayer
10
224.7159104
20
42.7537039
40
5.9538134
50
281.9935777
51
287.8851313
0
ARC
8
left_labelLayer
10
224.8527925
20
42.2617099
40
5.4442069
50
275.9054295
51
281.6604142
0
ARC
8
left_labelLayer
10
224.5787734
20
44.8194219
40
8.0165437
50
271.9119759
51
275.9726852
0
ARC
8
left_labelLayer
10
224.478762
20
47.3666423
40
10.5656934
50
269.9668897
51
271.993156
0
ARC
8
left_labelLayer
10
224.096208
20
42.0336893
40
2.556445
50
89.4422454
51
106.2089578
0
ARC
8
left_labelLayer
10
223.9424107
20
42.5944614
40
1.9750522
50
106.4657151
51
137.9176226
0
ARC
8
left_labelLayer
10
224.3833534
20
42.2072406
40
2.5618396
50
138.0994689
51
160.5866322
0
ARC
8
left_labelLayer
10
225.5168025
20
41.7902634
40
3.7694782
50
160.3353337
51
172.531508
0
ARC
8
left_labelLayer
10
226.6328169
20
41.6114472
40
4.8993735
50
172.1544908
51
174.761564
0
ARC
8
left_labelLayer
10
221.811265
20
42.0838688
40
4.419275
50
359.674503
51
8.9224676
0
ARC
8
left_labelLayer
10
223.390363
20
42.3411598
40
2.8193955
50
8.7342269
51
23.2771893
0
ARC
8
left_labelLayer
10
224.1400258
20
42.6558478
40
2.0064068
50
23.4821663
51
39.7071787
0
ARC
8
left_labelLayer
10
224.3241761
20
42.7936517
40
1.7767365
50
40.0822817
51
80.6243333
0
ARC
8
left_labelLayer
10
224.1346316
20
41.9247833
40
2.6652641
50
79.6468551
51
90.2910274
0
LINE
8
left_labelLayer
10
233.6914062
20
45.5197006
11
233.6914062
21
44.5118881
0
LINE
8
left_labelLayer
10
233.6914062
20
44.5118881
11
231.5117187
21
44.5118881
0
LINE
8
left_labelLayer
10
231.5117187
20
44.5118881
11
231.5117187
21
36.9572006
0
LINE
8
left_labelLayer
10
231.5117187
20
36.9572006
11
230.2148437
21
36.9572006
0
LINE
8
left_labelLayer
10
230.2148437
20
36.9572006
11
230.2148437
21
44.5118881
0
LINE
8
left_labelLayer
10
230.2148437
20
44.5118881
11
228.6835937
21
44.5118881
0
LINE
8
left_labelLayer
10
228.6835937
20
44.5118881
11
228.6835937
21
45.0978256
0
LINE
8
left_labelLayer
10
228.6835937
20
45.0978256
11
230.2148437
21
45.5665756
0
LINE
8
left_labelLayer
10
230.2148437
20
45.5665756
11
230.2148437
21
46.0431381
0
LINE
8
left_labelLayer
10
234.5664062
20
48.9259506
11
234.2304687
21
47.8868881
0
LINE
8
left_labelLayer
10
231.5117187
20
46.0743881
11
231.5117187
21
45.5197006
0
LINE
8
left_labelLayer
10
231.5117187
20
45.5197006
11
233.6914062
21
45.5197006
0
ARC
8
left_labelLayer
10
235.4706372
20
46.1035605
40
5.2561408
50
167.5776172
51
180.6586624
0
ARC
8
left_labelLayer
10
232.9990211
20
46.6797966
40
2.7186086
50
141.7433936
51
168.2322161
0
ARC
8
left_labelLayer
10
232.596594
20
46.8898326
40
2.2741143
50
98.2551559
51
139.620331
0
ARC
8
left_labelLayer
10
232.9499323
20
45.2575413
40
3.9419123
50
89.669706
51
99.9314304
0
ARC
8
left_labelLayer
10
232.9509169
20
45.0232213
40
4.1762233
50
81.5640647
51
89.7017457
0
ARC
8
left_labelLayer
10
232.6573158
20
42.9748926
40
6.2454708
50
75.9739961
51
81.6564686
0
ARC
8
left_labelLayer
10
232.1535158
20
40.8852287
40
8.3949538
50
73.2963503
51
76.0946352
0
ARC
8
left_labelLayer
10
232.2803462
20
41.8987709
40
6.2976603
50
71.9613634
51
76.5918041
0
ARC
8
left_labelLayer
10
232.7689489
20
43.971466
40
4.1681641
50
76.5183113
51
83.0217261
0
ARC
8
left_labelLayer
10
232.9391256
20
45.3400328
40
2.7890612
50
83.0760593
51
89.7926562
0
ARC
8
left_labelLayer
10
232.933527
20
46.3801656
40
1.7489804
50
89.48594
51
103.4197374
0
ARC
8
left_labelLayer
10
232.7758433
20
46.9859702
40
1.1231938
50
102.7677284
51
144.3380381
0
ARC
8
left_labelLayer
10
233.0935123
20
46.7815803
40
1.5005723
50
145.0689034
51
162.1801816
0
ARC
8
left_labelLayer
10
234.1826737
20
46.415132
40
2.6496677
50
161.8437745
51
171.7847177
0
ARC
8
left_labelLayer
10
235.9591524
20
46.1483106
40
4.4460553
50
171.6527938
51
178.438324
0
ARC
8
left_labelLayer
10
237.6344185
20
46.0768704
40
6.1227002
50
178.1972851
51
180.023229
0
LINE
8
left_labelLayer
10
239.1914062
20
38.0275131
11
239.1914062
21
37.0353256
0
LINE
8
left_labelLayer
10
235.3476562
20
39.4181381
11
235.3476562
21
44.5118881
0
LINE
8
left_labelLayer
10
235.3476562
20
44.5118881
11
234.1210937
21
44.5118881
0
LINE
8
left_labelLayer
10
234.1210937
20
44.5118881
11
234.1210937
21
45.1368881
0
LINE
8
left_labelLayer
10
234.1210937
20
45.1368881
11
235.3476562
21
45.6759506
0
LINE
8
left_labelLayer
10
235.3476562
20
45.6759506
11
235.8945312
21
47.5040756
0
LINE
8
left_labelLayer
10
235.8945312
20
47.5040756
11
236.6445312
21
47.5040756
0
LINE
8
left_labelLayer
10
236.6445312
20
47.5040756
11
236.6445312
21
45.5197006
0
LINE
8
left_labelLayer
10
236.6445312
20
45.5197006
11
239.1289062
21
45.5197006
0
LINE
8
left_labelLayer
10
239.1289062
20
45.5197006
11
239.1289062
21
44.5118881
0
LINE
8
left_labelLayer
10
239.1289062
20
44.5118881
11
236.6445312
21
44.5118881
0
LINE
8
left_labelLayer
10
236.6445312
20
44.5118881
11
236.6445312
21
39.4728256
0
ARC
8
left_labelLayer
10
238.028425
20
42.13037
40
4.2591162
50
269.8803567
51
278.3028318
0
ARC
8
left_labelLayer
10
238.069082
20
41.7984162
40
3.9247782
50
278.4153127
51
279.0079991
0
ARC
8
left_labelLayer
10
237.5909597
20
44.8527022
40
7.0162574
50
278.9590721
51
280.5103649
0
ARC
8
left_labelLayer
10
238.0466175
20
42.4078125
40
4.5292706
50
280.4846589
51
282.6269548
0
ARC
8
left_labelLayer
10
238.4459704
20
40.6336615
40
2.7107303
50
282.5876285
51
285.5795817
0
ARC
8
left_labelLayer
10
238.6453327
20
39.9003354
40
1.9508101
50
285.7239904
51
286.255517
0
ARC
8
left_labelLayer
10
238.6461611
20
38.1885515
40
1.2756262
50
287.9888574
51
295.3047808
0
ARC
8
left_labelLayer
10
238.338486
20
39.1194209
40
2.2560173
50
283.3069695
51
288.1197178
0
ARC
8
left_labelLayer
10
238.0134524
20
40.4752683
40
3.6502763
50
280.0070407
51
283.3734265
0
ARC
8
left_labelLayer
10
237.7962238
20
41.6540659
40
4.8488964
50
279.1861309
51
280.1143916
0
ARC
8
left_labelLayer
10
237.6625213
20
42.4145687
40
5.6210002
50
275.5260636
51
279.2939685
0
ARC
8
left_labelLayer
10
237.8129446
20
40.8434553
40
4.0427032
50
270.8933019
51
275.5483393
0
ARC
8
left_labelLayer
10
237.8318486
20
40.1256334
40
3.3246827
50
270.0031482
51
270.7604232
0
ARC
8
left_labelLayer
10
237.7796983
20
40.1877974
40
3.3872511
50
253.7848117
51
270.8852531
0
ARC
8
left_labelLayer
10
237.3783992
20
38.8192123
40
1.9610501
50
190.3817602
51
253.8772488
0
ARC
8
left_labelLayer
10
239.4238107
20
39.3722561
40
4.0764128
50
179.3550948
51
192.8477675
0
ARC
8
left_labelLayer
10
239.2559482
20
39.4564927
40
2.6114681
50
179.6416537
51
189.7506186
0
ARC
8
left_labelLayer
10
238.3340483
20
39.2920584
40
1.6750477
50
189.5479202
51
205.787396
0
ARC
8
left_labelLayer
10
237.9551876
20
39.117352
40
1.2579354
50
206.1294055
51
221.4084301
0
ARC
8
left_labelLayer
10
237.9127116
20
39.0851214
40
1.2047661
50
221.5949113
51
262.3505133
0
ARC
8
left_labelLayer
10
238.0137434
20
39.6046592
40
1.7334058
50
261.3265906
51
270.1913121
0
LINE
8
top_outsideCutPath
10
309
20
150
11
309
21
138
0
LINE
8
top_outsideCutPath
10
309
20
138
11
306
21
138
0
LINE
8
top_outsideCutPath
10
306
20
138
11
306
21
114
0
LINE
8
top_outsideCutPath
10
306
20
114
11
309
21
114
0
LINE
8
top_outsideCutPath
10
309
20
114
11
309
21
90
0
LINE
8
top_outsideCutPath
10
309
20
90
11
306
21
90
0
LINE
8
top_outsideCutPath
10
306
20
90
11
306
21
66
0
LINE
8
top_outsideCutPath
10
306
20
66
11
309
21
66
0
LINE
8
top_outsideCutPath
10
309
20
66
11
309
21
42
0
LINE
8
top_outsideCutPath
10
309
20
42
11
306
21
42
0
LINE
8
top_outsideCutPath
10
306
20
42
11
306
21
18
0
LINE
8
top_outsideCutPath
10
306
20
18
11
309
21
18
0
LINE
8
top_outsideCutPath
10
309
20
18
11
309
21
6
0
LINE
8
top_outsideCutPath
10
309
20
6
11
321
21
6
0
LINE
8
top_outsideCutPath
10
321
20
6
11
321
21
3
0
LINE
8
top_outsideCutPath
10
321
20
3
11
345
21
3
0
LINE
8
top_outsideCutPath
10
345
20
3
11
345
21
6
0
LINE
8
top_outsideCutPath
10
345
20
6
11
369
21
6
0
LINE
8
top_outsideCutPath
10
369
20
6
11
369
21
3
0
LINE
8
top_outsideCutPath
10
369
20
3
11
393
21
3
0
LINE
8
top_outsideCutPath
10
393
20
3
11
393
21
6
0
LINE
8
top_outsideCutPath
10
393
20
6
11
417
21
6
0
LINE
8
top_outsideCutPath
10
417
20
6
11
417
21
3
0
LINE
8
top_outsideCutPath
10
417
20
3
11
441
21
3
0
LINE
8
top_outsideCutPath
10
441
20
3
11
441
21
6
0
LINE
8
top_outsideCutPath
10
441
20
6
11
453
21
6
0
LINE
8
top_outsideCutPath
10
453
20
6
11
453
21
18
0
LINE
8
top_outsideCutPath
10
453
20
18
11
456
21
18
0
LINE
8
top_outsideCutPath
10
456
20
18
11
456
21
42
0
LINE
8
top_outsideCutPath
10
456
20
42
11
453
21
42
0
LINE
8
top_outsideCutPath
10
453
20
42
11
453
21
66
0
LINE
8
top_outsideCutPath
10
453
20
66
11
456
21
66
0
LINE
8
top_outsideCutPath
10
456
20
66
11
456
21
90
0
LINE
8
top_outsideCutPath
10
456
20
90
11
453
21
90
0
LINE
8
top_outsideCutPath
10
453
20
90
11
453
21
114
0
LINE
8
top_outsideCutPath
10
453
20
114
11
456
21
114
0
LINE
8
top_outsideCutPath
10
456
20
114
11
456
21
138
0
LINE
8
top_outsideCutPath
10
456
20
138
11
453
21
138
0
LINE
8
top_outsideCutPath
10
453
20
138
11
453
21
150
0
LINE
8
top_outsideCutPath
10
453
20
150
11
441
21
150
0
LINE
8
top_outsideCutPath
10
441
20
150
11
441
21
153
0
LINE
8
top_outsideCutPath
10
441
20
153
11
417
21
153
0
LINE
8
top_outsideCutPath
10
417
20
153
11
417
21
150
0
LINE
8
top_outsideCutPath
10
417
20
150
11
393
21
150
0
LINE
8
top_outsideCutPath
10
393
20
150
11
393
21
153
0
LINE
8
top_outsideCutPath
10
393
20
153
11
369
21
153
0
LINE
8
top_outsideCutPath
10
369
20
153
11
369
21
150
0
LINE
8
top_outsideCutPath
10
369
20
150
11
345
21
150
0
LINE
8
top_outsideCutPath
10
345
20
150
11
345
21
153
0
LINE
8
top_outsideCutPath
10
345
20
153
11
321
21
153
0
LINE
8
top_outsideCutPath
10
321
20
153
11
321
21
150
0
LINE
8
top_outsideCutPath
10
321
20
150
11
309
21
150
0
LINE
8
top_labelLayer
10
368.0213603
20
73.7226563
11
368.0213603
21
71.8623047
0
LINE
8
top_labelLayer
10
360.8143291
20
76.3300781
11
360.8143291
21
85.8808594
0
LINE
8
top_labelLayer
10
360.8143291
20
85.8808594
11
358.5145244
21
85.8808594
0
LINE
8
top_labelLayer
10
358.5145244
20
85.8808594
11
358.5145244
21
87.0527344
0
LINE
8
top_labelLayer
10
358.5145244
20
87.0527344
11
360.8143291
21
88.0634766
0
LINE
8
top_labelLayer
10
360.8143291
20
88.0634766
11
361.8397197
21
91.4912109
0
LINE
8
top_labelLayer
10
361.8397197
20
91.4912109
11
363.2459697
21
91.4912109
0
LINE
8
top_labelLayer
10
363.2459697
20
91.4912109
11
363.2459697
21
87.7705078
0
LINE
8
top_labelLayer
10
363.2459697
20
87.7705078
11
367.9041728
21
87.7705078
0
LINE
8
top_labelLayer
10
367.9041728
20
87.7705078
11
367.9041728
21
85.8808594
0
LINE
8
top_labelLayer
10
367.9041728
20
85.8808594
11
363.2459697
21
85.8808594
0
LINE
8
top_labelLayer
10
363.2459697
20
85.8808594
11
363.2459697
21
76.4326172
0
ARC
8
top_labelLayer
10
365.8407705
20
81.4155291
40
7.985859
50
269.8803567
51
278.3028147
0
ARC
8
top_labelLayer
10
365.9169148
20
80.7935251
40
7.359393
50
278.4155018
51
279.0081532
0
ARC
8
top_labelLayer
10
365.0207345
20
86.5186941
40
13.1542724
50
278.9589712
51
280.5104067
0
ARC
8
top_labelLayer
10
365.8747205
20
81.9365165
40
8.4931972
50
280.4847462
51
282.6268366
0
ARC
8
top_labelLayer
10
366.6236117
20
78.6094147
40
5.0828564
50
282.5876837
51
285.5794974
0
ARC
8
top_labelLayer
10
367.0015026
20
77.2200613
40
3.643069
50
285.7232314
51
286.2569026
0
ARC
8
top_labelLayer
10
366.9990277
20
74.0245974
40
2.3917929
50
287.9888546
51
295.3047972
0
ARC
8
top_labelLayer
10
366.4221323
20
75.7699889
40
4.2300386
50
283.3069859
51
288.1197273
0
ARC
8
top_labelLayer
10
365.812748
20
78.31193
40
6.8439962
50
280.0070073
51
283.3735269
0
ARC
8
top_labelLayer
10
365.4048347
20
80.525696
40
9.0949815
50
279.1863331
51
280.1142569
0
ARC
8
top_labelLayer
10
365.1546989
20
81.9484399
40
10.5394295
50
275.5260473
51
279.2939327
0
ARC
8
top_labelLayer
10
365.4367528
20
79.0024241
40
7.5799446
50
270.8932554
51
275.5483689
0
ARC
8
top_labelLayer
10
365.4722048
20
77.6543882
40
6.2315366
50
270.0030105
51
270.7605581
0
ARC
8
top_labelLayer
10
365.3744074
20
77.773182
40
6.3510885
50
253.7847975
51
270.8852589
0
ARC
8
top_labelLayer
10
364.6219729
20
75.2070927
40
3.6769696
50
190.3817649
51
253.8772393
0
ARC
8
top_labelLayer
10
368.4571222
20
76.2440495
40
7.6432773
50
179.3550956
51
192.8477622
0
ARC
8
top_labelLayer
10
368.1423776
20
76.4019921
40
4.8965037
50
179.6416421
51
189.750605
0
ARC
8
top_labelLayer
10
366.4138237
20
76.0936816
40
3.1407243
50
189.5479448
51
205.7873695
0
ARC
8
top_labelLayer
10
365.7034591
20
75.7661104
40
2.3586394
50
206.129448
51
221.4084032
0
ARC
8
top_labelLayer
10
365.6238079
20
75.7056724
40
2.258937
50
221.5949217
51
262.3505132
0
ARC
8
top_labelLayer
10
365.8132424
20
76.6798143
40
3.2501449
50
261.3266146
51
270.1913113
0
ARC
8
top_labelLayer
10
372.5266571
20
79.6731371
40
12.5604183
50
349.1761864
51
0.3862596
0
ARC
8
top_labelLayer
10
376.7554548
20
78.8301165
40
8.2486133
50
330.2507034
51
349.4116504
0
ARC
8
top_labelLayer
10
378.0568673
20
78.1536927
40
6.7833274
50
318.1439661
51
329.756624
0
ARC
8
top_labelLayer
10
378.2917482
20
77.965458
40
6.4828019
50
278.8959164
51
317.9979139
0
ARC
8
top_labelLayer
10
377.6865351
20
80.8650861
40
9.4423243
50
269.7502939
51
279.803326
0
ARC
8
top_labelLayer
10
377.5883826
20
79.231322
40
7.8086785
50
253.5436906
51
270.4182464
0
ARC
8
top_labelLayer
10
377.3284475
20
78.2258277
40
6.7708312
50
238.8115492
51
253.2428307
0
ARC
8
top_labelLayer
10
377.2445579
20
78.057126
40
6.5830881
50
207.7947022
51
238.6757923
0
ARC
8
top_labelLayer
10
378.4483545
20
78.7943926
40
7.9923033
50
205.6560385
51
208.4461342
0
ARC
8
top_labelLayer
10
379.3755193
20
79.1807048
40
8.9954763
50
188.9102484
51
205.317141
0
ARC
8
top_labelLayer
10
382.5002423
20
79.7099312
40
12.1645231
50
179.7744751
51
189.0932848
0
ARC
8
top_labelLayer
10
382.9611766
20
79.8433282
40
12.6256528
50
169.244298
51
180.388077
0
ARC
8
top_labelLayer
10
378.6736082
20
80.6908238
40
8.2553117
50
150.7111559
51
169.469537
0
ARC
8
top_labelLayer
10
377.3048747
20
81.3937184
40
6.717924
50
138.1759436
51
150.2287448
0
ARC
8
top_labelLayer
10
377.0771991
20
81.5684321
40
6.4317904
50
99.1759344
51
137.983272
0
ARC
8
top_labelLayer
10
377.7038513
20
78.6193387
40
9.4442406
50
89.7326285
51
100.0759812
0
ARC
8
top_labelLayer
10
377.8290991
20
79.8929543
40
8.1709255
50
73.5222706
51
90.5692298
0
ARC
8
top_labelLayer
10
378.3082739
20
81.6339245
40
6.365635
50
41.1445706
51
73.2133776
0
ARC
8
top_labelLayer
10
377.3935635
20
80.8477447
40
7.5717415
50
13.501441
51
41.0703389
0
ARC
8
top_labelLayer
10
373.8595987
20
79.9229534
40
11.2241976
50
1.127719
51
13.880004
0
ARC
8
top_labelLayer
10
370.8151358
20
79.7598226
40
14.2716544
50
359.99193
51
1.5419575
0
ARC
8
top_labelLayer
10
385.1689659
20
79.6946194
40
12.3137834
50
179.7059623
51
187.9160759
0
ARC
8
top_labelLayer
10
380.6526452
20
79.0458546
40
7.7511771
50
187.7639223
51
200.0976943
0
ARC
8
top_labelLayer
10
378.164638
20
78.1342453
40
5.1014207
50
200.0846
51
216.9131549
0
ARC
8
top_labelLayer
10
377.2560979
20
77.4855062
40
3.9854566
50
217.3009623
51
261.7099028
0
ARC
8
top_labelLayer
10
377.677871
20
79.498165
40
6.039237
50
260.5033161
51
270.2476795
0
ARC
8
top_labelLayer
10
377.7583746
20
79.1068002
40
5.6480778
50
269.4481715
51
284.7255742
0
ARC
8
top_labelLayer
10
378.2055001
20
77.4485578
40
3.930662
50
284.5662324
51
322.6333807
0
ARC
8
top_labelLayer
10
377.1600968
20
78.2038139
40
5.2200023
50
323.0089348
51
342.6390479
0
ARC
8
top_labelLayer
10
374.1700286
20
79.1810542
40
8.3655519
50
342.36157
51
353.7537588
0
ARC
8
top_labelLayer
10
369.758665
20
79.7127865
40
12.808673
50
353.5363071
51
0.2014108
0
ARC
8
top_labelLayer
10
370.4345726
20
79.8197392
40
12.1328442
50
359.7075578
51
7.8972726
0
ARC
8
top_labelLayer
10
374.8779419
20
80.4567365
40
7.6441213
50
7.7440016
51
20.0690143
0
ARC
8
top_labelLayer
10
377.3539816
20
81.3653493
40
5.0066362
50
20.025706
51
37.4350462
0
ARC
8
top_labelLayer
10
378.1755114
20
81.9482947
40
4.0001225
50
37.9577585
51
80.4006217
0
ARC
8
top_labelLayer
10
377.7086642
20
79.8652776
40
6.1328634
50
79.3453306
51
90.3174901
0
ARC
8
top_labelLayer
10
377.6222195
20
80.2112655
40
5.7870191
50
89.4805888
51
103.8805052
0
ARC
8
top_labelLayer
10
377.1359603
20
82.0629374
40
3.872867
50
103.4685195
51
142.3118969
0
ARC
8
top_labelLayer
10
378.0812874
20
81.3981148
40
5.0276671
50
142.9025678
51
162.3749549
0
ARC
8
top_labelLayer
10
381.0600229
20
80.4054608
40
8.1672574
50
162.065324
51
173.1674838
0
ARC
8
top_labelLayer
10
385.7046086
20
79.8130691
40
12.8493827
50
173.0086085
51
180.2463918
0
LINE
8
top_labelLayer
10
391.7811259
20
73.78125
11
391.6053447
21
73.78125
0
LINE
8
top_labelLayer
10
391.7811259
20
71.1152344
11
391.7811259
21
64.5087891
0
LINE
8
top_labelLayer
10
391.7811259
20
64.5087891
11
389.3494853
21
64.5087891
0
LINE
8
top_labelLayer
10
389.3494853
20
64.5087891
11
389.3494853
21
87.7705078
0
LINE
8
top_labelLayer
10
389.3494853
20
87.7705078
11
391.3270244
21
87.7705078
0
LINE
8
top_labelLayer
10
391.3270244
20
87.7705078
11
391.6639384
21
85.5732422
0
LINE
8
top_labelLayer
10
391.6639384
20
85.5732422
11
391.7811259
21
85.5732422
0
LINE
8
top_labelLayer
10
391.7811259
20
80.2998047
11
391.7811259
21
79.7578125
0
ARC
8
top_labelLayer
10
396.7791821
20
78.79843
40
7.3756924
50
255.7755386
51
270.3185464
0
ARC
8
top_labelLayer
10
396.5686988
20
77.8632749
40
6.4175402
50
245.9801486
51
255.5455754
0
ARC
8
top_labelLayer
10
396.1610186
20
76.9152138
40
5.3856465
50
215.5850231
51
245.8361624
0
ARC
8
top_labelLayer
10
368.7747262
20
70.8962223
40
23.0121821
50
2.9503139
51
7.2020992
0
ARC
8
top_labelLayer
10
372.497853
20
71.1045238
40
19.2832759
50
0.0318239
51
2.9015962
0
ARC
8
top_labelLayer
10
397.1375516
20
81.8114177
40
6.5454274
50
132.3565176
51
144.9195839
0
ARC
8
top_labelLayer
10
396.1348459
20
82.9053363
40
5.0614945
50
115.4006271
51
132.311831
0
ARC
8
top_labelLayer
10
396.5259621
20
81.9532063
40
6.0895992
50
97.7066206
51
114.8821558
0
ARC
8
top_labelLayer
10
396.7991202
20
80.1816773
40
7.8818276
50
89.846847
51
97.947437
0
ARC
8
top_labelLayer
10
396.8954462
20
80.6102491
40
7.4536074
50
74.1923592
51
90.5785153
0
ARC
8
top_labelLayer
10
397.4111952
20
82.4851057
40
5.5091793
50
38.0523374
51
74.0417372
0
ARC
8
top_labelLayer
10
395.9886703
20
81.3948008
40
7.3014098
50
16.3356025
51
37.9090559
0
ARC
8
top_labelLayer
10
392.251666
20
80.2437804
40
11.2114209
50
4.5766581
51
16.6088775
0
ARC
8
top_labelLayer
10
387.6509043
20
79.7853523
40
15.8343472
50
359.9003485
51
4.9018085
0
ARC
8
top_labelLayer
10
389.2281971
20
79.6736992
40
14.2572786
50
350.6562798
51
0.3380286
0
ARC
8
top_labelLayer
10
394.198526
20
78.8282992
40
9.2156793
50
335.8305911
51
350.825491
0
ARC
8
top_labelLayer
10
396.3848681
20
77.8846438
40
6.8347136
50
321.3161505
51
335.5436077
0
ARC
8
top_labelLayer
10
397.2207309
20
77.2035435
40
5.756538
50
274.064006
51
321.4080996
0
ARC
8
top_labelLayer
10
396.831333
20
79.6701238
40
8.2472799
50
269.922576
51
275.5481714
0
ARC
8
top_labelLayer
10
396.4185413
20
78.9917333
40
7.0064926
50
89.590428
51
100.35019
0
ARC
8
top_labelLayer
10
395.9189253
20
81.6164098
40
4.3348077
50
100.0868107
51
118.1918021
0
ARC
8
top_labelLayer
10
395.4071109
20
82.6146134
40
3.2132915
50
118.5569378
51
141.0243398
0
ARC
8
top_labelLayer
10
396.1870225
20
82.0644768
40
4.16611
50
141.8890576
51
160.597296
0
ARC
8
top_labelLayer
10
398.9279231
20
81.0587623
40
7.0855528
50
160.2895769
51
171.2452907
0
ARC
8
top_labelLayer
10
403.4344669
20
80.332163
40
11.6502272
50
171.0868481
51
178.3247469
0
ARC
8
top_labelLayer
10
407.2561791
20
80.150547
40
15.4757729
50
178.0662802
51
179.4473965
0
ARC
8
top_labelLayer
10
407.8588405
20
79.6950333
40
16.0778372
50
179.7762762
51
185.7075238
0
ARC
8
top_labelLayer
10
401.5199216
20
79.0419021
40
9.7054088
50
185.5924934
51
194.205064
0
ARC
8
top_labelLayer
10
397.459273
20
77.9880247
40
5.5103634
50
193.9430518
51
208.0218313
0
ARC
8
top_labelLayer
10
395.8163283
20
77.1522164
40
3.667512
50
208.5536784
51
217.5605297
0
ARC
8
top_labelLayer
10
395.6824626
20
77.0965349
40
3.5276509
50
218.1690464
51
253.8047204
0
ARC
8
top_labelLayer
10
396.3367731
20
79.1138382
40
5.6477781
50
253.1382386
51
266.8483183
0
ARC
8
top_labelLayer
10
396.5202562
20
81.2776364
40
7.8186553
50
266.3775488
51
270.0510292
0
ARC
8
top_labelLayer
10
396.5825885
20
77.5558323
40
4.097222
50
269.2256965
51
292.0430399
0
ARC
8
top_labelLayer
10
396.6378709
20
77.2263771
40
3.7717968
50
293.1429677
51
324.1353923
0
ARC
8
top_labelLayer
10
395.8166072
20
77.9217262
40
4.8454374
50
323.1614856
51
325.0152583
0
ARC
8
top_labelLayer
10
394.9369998
20
78.4671371
40
5.8791005
50
325.5753747
51
344.1504703
0
ARC
8
top_labelLayer
10
391.8947104
20
79.3664712
40
9.0514127
50
343.933616
51
355.1137549
0
ARC
8
top_labelLayer
10
388.011068
20
79.76055
40
12.9546554
50
354.8402181
51
0.1174665
0
ARC
8
top_labelLayer
10
388.6950788
20
79.8490389
40
12.2707737
50
359.710832
51
7.8610487
0
ARC
8
top_labelLayer
10
393.156716
20
80.4850339
40
7.7641035
50
7.7149684
51
19.8859643
0
ARC
8
top_labelLayer
10
395.6105126
20
81.3713547
40
5.155142
50
19.8991481
51
35.8980166
0
ARC
8
top_labelLayer
10
396.7050189
20
82.2002503
40
3.7826225
50
35.4481541
51
85.2266651
0
ARC
8
top_labelLayer
10
396.4763686
20
80.7663777
40
5.231675
50
84.0378935
51
90.0847958
0
LINE
8
back_outsideCutPath
10
0
20
166
11
0
21
138
0
LINE
8
back_outsideCutPath
10
0
20
138
11
3
21
138
0
LINE
8
back_outsideCutPath
10
3
20
138
11
3
21
114
0
LINE
8
back_outsideCutPath
10
3
20
114
11
0
21
114
0
LINE
8
back_outsideCutPath
10
0
20
114
11
0
21
90
0
LINE
8
back_outsideCutPath
10
0
20
90
11
0
21
86
0
LINE
8
back_outsideCutPath
10
0
20
86
11
15
21
86
0
LINE
8
back_outsideCutPath
10
15
20
86
11
15
21
89
0
LINE
8
back_outsideCutPath
10
15
20
89
11
39
21
89
0
LINE
8
back_outsideCutPath
10
39
20
89
11
39
21
86
0
LINE
8
back_outsideCutPath
10
39
20
86
11
63
21
86
0
LINE
8
back_outsideCutPath
10
63
20
86
11
63
21
89
0
LINE
8
back_outsideCutPath
10
63
20
89
11
87
21
89
0
LINE
8
back_outsideCutPath
10
87
20
89
11
87
21
86
0
LINE
8
back_outsideCutPath
10
87
20
86
11
111
21
86
0
LINE
8
back_outsideCutPath
10
111
20
86
11
111
21
89
0
LINE
8
back_outsideCutPath
10
111
20
89
11
135
21
89
0
LINE
8
back_outsideCutPath
10
135
20
89
11
135
21
86
0
LINE
8
back_outsideCutPath
10
135
20
86
11
150
21
86
0
LINE
8
back_outsideCutPath
10
150
20
86
11
150
21
114
0
LINE
8
back_outsideCutPath
10
150
20
114
11
147
21
114
0
LINE
8
back_outsideCutPath
10
147
20
114
11
147
21
138
0
LINE
8
back_outsideCutPath
10
147
20
138
11
150
21
138
0
LINE
8
back_outsideCutPath
10
150
20
138
11
150
21
162
0
LINE
8
back_outsideCutPath
10
150
20
162
11
150
21
166
0
LINE
8
back_outsideCutPath
10
150
20
166
11
135
21
166
0
LINE
8
back_outsideCutPath
10
135
20
166
11
135
21
163
0
LINE
8
back_outsideCutPath
10
135
20
163
11
111
21
163
0
LINE
8
back_outsideCutPath
10
111
20
163
11
111
21
166
0
LINE
8
back_outsideCutPath
10
111
20
166
11
87
21
166
0
LINE
8
back_outsideCutPath
10
87
20
166
11
87
21
163
0
LINE
8
back_outsideCutPath
10
87
20
163
11
63
21
163
0
LINE
8
back_outsideCutPath
10
63
20
163
11
63
21
166
0
LINE
8
back_outsideCutPath
10
63
20
166
11
39
21
166
0
LINE
8
back_outsideCutPath
10
39
20
166
11
39
21
163
0
LINE
8
back_outsideCutPath
10
39
20
163
11
15
21
163
0
LINE
8
back_outsideCutPath
10
15
20
163
11
15
21
166
0
LINE
8
back_outsideCutPath
10
15
20
166
11
0
21
166
0
LINE
8
back_labelLayer
10
59.7109375
20
121.1016508
11
59.6171875
21
121.1016508
0
LINE
8
back_labelLayer
10
59.6171875
20
121.1016508
11
59.34375
21
120.0000883
0
LINE
8
back_labelLayer
10
59.34375
20
120.0000883
11
58.4140625
21
120.0000883
0
LINE
8
back_labelLayer
10
58.4140625
20
120.0000883
11
58.4140625
21
132.1563383
0
LINE
8
back_labelLayer
10
58.4140625
20
132.1563383
11
59.7109375
21
132.1563383
0
LINE
8
back_labelLayer
10
59.7109375
20
132.1563383
11
59.7109375
21
129.2032133
0
LINE
8
back_labelLayer
10
59.6484375
20
127.4219633
11
59.7109375
21
127.4219633
0
ARC
8
back_labelLayer
10
62.437342
20
124.739703
40
3.9637012
50
74.2393355
51
90.5623777
0
ARC
8
back_labelLayer
10
62.6994354
20
125.7012043
40
2.9671715
50
38.5631327
51
74.0670403
0
ARC
8
back_labelLayer
10
62.0249501
20
125.1767534
40
3.8215107
50
16.4709337
51
38.4075242
0
ARC
8
back_labelLayer
10
60.0818729
20
124.5674602
40
5.8576984
50
5.1338399
51
16.7973508
0
ARC
8
back_labelLayer
10
57.6288439
20
124.3068839
40
8.3243
50
359.8779435
51
5.4093499
0
ARC
8
back_labelLayer
10
58.3493623
20
124.2442908
40
7.603895
50
350.6562921
51
0.3380242
0
ARC
8
back_labelLayer
10
61.0002174
20
123.7934105
40
4.9150291
50
335.8305902
51
350.8254897
0
ARC
8
back_labelLayer
10
62.1662731
20
123.2901235
40
3.645173
50
321.3161354
51
335.5436222
0
ARC
8
back_labelLayer
10
62.6120598
20
122.9268742
40
3.070154
50
274.0640117
51
321.4080996
0
ARC
8
back_labelLayer
10
62.4043833
20
124.2423878
40
4.3985534
50
269.9225498
51
275.5481397
0
ARC
8
back_labelLayer
10
62.3765682
20
123.777481
40
3.9337035
50
255.7755313
51
270.3185353
0
ARC
8
back_labelLayer
10
62.2643121
20
123.278741
40
3.4226987
50
245.9801827
51
255.5455802
0
ARC
8
back_labelLayer
10
62.0468796
20
122.7730971
40
2.8723436
50
215.5850144
51
245.836166
0
ARC
8
back_labelLayer
10
32.6719463
20
129.1803603
40
27.0390009
50
358.1123208
51
0.0484255
0
ARC
8
back_labelLayer
10
40.197585
20
128.9276989
40
19.509124
50
355.7238617
51
358.125912
0
ARC
8
back_labelLayer
10
43.5659926
20
128.6957991
40
16.1328142
50
355.4712507
51
355.6531662
0
ARC
8
back_labelLayer
10
62.1295529
20
125.735398
40
2.9485933
50
95.1835142
51
145.1109036
0
ARC
8
back_labelLayer
10
62.3887245
20
124.2739011
40
4.4293229
50
89.8743571
51
96.8145377
0
ARC
8
back_labelLayer
10
62.1837876
20
123.9730382
40
3.6443387
50
89.5731496
51
100.7324069
0
ARC
8
back_labelLayer
10
61.9140051
20
125.3360804
40
2.2549278
50
100.4469488
51
119.6700771
0
ARC
8
back_labelLayer
10
61.6638368
20
125.8038007
40
1.7247538
50
120.1403097
51
142.4248986
0
ARC
8
back_labelLayer
10
62.0777185
20
125.5300042
40
2.2200212
50
143.3382198
51
161.2559897
0
ARC
8
back_labelLayer
10
63.8085021
20
124.9155166
40
4.0565517
50
160.8926173
51
171.2334205
0
ARC
8
back_labelLayer
10
66.6978449
20
124.4493973
40
6.9832099
50
171.066774
51
177.8456894
0
ARC
8
back_labelLayer
10
69.7027297
20
124.296573
40
9.9917947
50
177.6176947
51
180.0425612
0
ARC
8
back_labelLayer
10
68.2856736
20
124.2556657
40
8.5748015
50
179.7762566
51
185.7075354
0
ARC
8
back_labelLayer
10
64.904955
20
123.9073314
40
5.1762112
50
185.5924958
51
194.2050777
0
ARC
8
back_labelLayer
10
62.739281
20
123.3452627
40
2.9388586
50
193.9430359
51
208.0218247
0
ARC
8
back_labelLayer
10
61.86305
20
122.8995026
40
1.9560119
50
208.553694
51
217.5605201
0
ARC
8
back_labelLayer
10
61.79165
20
122.869802
40
1.8814131
50
218.1690368
51
253.8047259
0
ARC
8
back_labelLayer
10
62.1406147
20
123.9456917
40
3.0121421
50
253.1382275
51
266.8483353
0
ARC
8
back_labelLayer
10
62.238472
20
125.0997263
40
4.1699521
50
266.3775733
51
270.0510514
0
ARC
8
back_labelLayer
10
62.2698518
20
123.514935
40
2.5853072
50
269.3868901
51
285.8630675
0
ARC
8
back_labelLayer
10
62.4619235
20
122.8207611
40
1.865075
50
286.0162924
51
326.8497277
0
ARC
8
back_labelLayer
10
61.5348827
20
123.434891
40
2.9770675
50
326.7105112
51
343.6661763
0
ARC
8
back_labelLayer
10
59.7995256
20
123.9651593
40
4.7915591
50
343.4171428
51
353.6369302
0
ARC
8
back_labelLayer
10
57.1784469
20
124.2761705
40
7.4309831
50
353.4934758
51
0.2205584
0
ARC
8
back_labelLayer
10
56.9473612
20
124.3357881
40
7.6620766
50
359.7680941
51
6.3095149
0
ARC
8
back_labelLayer
10
59.8335244
20
124.6669905
40
4.7570119
50
6.164876
51
16.0396504
0
ARC
8
back_labelLayer
10
61.6927267
20
125.2148969
40
2.8188287
50
15.7779603
51
32.0151253
0
ARC
8
back_labelLayer
10
62.2725859
20
125.5469741
40
2.1512681
50
32.7032831
51
35.5242599
0
ARC
8
back_labelLayer
10
62.4845392
20
125.6976218
40
1.8912323
50
35.5408432
51
79.8011227
0
ARC
8
back_labelLayer
10
62.2305662
20
124.6179309
40
2.9994091
50
78.6781377
51
90.374958
0
LINE
8
back_labelLayer
10
74.4453125
20
120.0000883
11
73.484375
21
120.0000883
0
LINE
8
back_labelLayer
10
73.484375
20
120.0000883
11
73.2265625
21
121.2188383
0
LINE
8
back_labelLayer
10
73.2265625
20
121.2188383
11
73.1640625
21
121.2188383
0
LINE
8
back_labelLayer
10
71.7265625
20
125.0860258
11
73.1796875
21
125.1329008
0
LINE
8
back_labelLayer
10
73.1796875
20
125.1329008
11
73.1796875
21
125.6641508
0
LINE
8
back_labelLayer
10
68.9375
20
126.9766508
11
68.5390625
21
127.9688383
0
LINE
8
back_labelLayer
10
74.4453125
20
125.8438383
11
74.4453125
21
120.0000883
0
LINE
8
back_labelLayer
10
73.1484375
20
123.4375883
11
73.1484375
21
124.2110258
0
LINE
8
back_labelLayer
10
73.1484375
20
124.2110258
11
71.8515625
21
124.1563383
0
ARC
8
back_labelLayer
10
68.9445474
20
124.5503505
40
5.3761772
50
314.744501
51
321.7071925
0
ARC
8
back_labelLayer
10
70.2653835
20
123.2082781
40
3.4931745
50
304.8485642
51
314.8530758
0
ARC
8
back_labelLayer
10
70.8998915
20
122.3051221
40
2.3894266
50
294.3932745
51
304.7371393
0
ARC
8
back_labelLayer
10
70.6831142
20
122.8668124
40
2.990704
50
281.2979802
51
293.7313404
0
ARC
8
back_labelLayer
10
70.3965509
20
124.2556588
40
4.4087869
50
272.9335335
51
281.4138906
0
ARC
8
back_labelLayer
10
70.301566
20
125.6802818
40
5.8364454
50
269.9539485
51
273.1490324
0
ARC
8
back_labelLayer
10
70.2687614
20
123.8236843
40
3.9799453
50
258.6719908
51
270.4047305
0
ARC
8
back_labelLayer
10
69.9923079
20
122.5012371
40
2.6289828
50
238.3272929
51
258.9183814
0
ARC
8
back_labelLayer
10
69.8018004
20
122.1536802
40
2.2332544
50
227.7689535
51
237.8050163
0
ARC
8
back_labelLayer
10
69.742211
20
122.0704933
40
2.1316406
50
192.0827614
51
227.4520703
0
ARC
8
back_labelLayer
10
70.8411915
20
122.3414031
40
3.263169
50
179.5457148
51
192.6949391
0
ARC
8
back_labelLayer
10
69.8202474
20
122.4595557
40
2.2440206
50
115.4904586
51
182.3568144
0
ARC
8
back_labelLayer
10
70.944078
20
120.3982202
40
4.5901181
50
101.3568219
51
117.0798687
0
ARC
8
back_labelLayer
10
71.8466195
20
116.1805535
40
8.9030951
50
92.4696359
51
101.7064824
0
ARC
8
back_labelLayer
10
72.1059999
20
112.4238704
40
12.6678391
50
91.7164266
51
92.9095602
0
ARC
8
back_labelLayer
10
69.4548199
20
125.6840892
40
3.724921
50
359.6933106
51
8.0035887
0
ARC
8
back_labelLayer
10
70.8638889
20
125.8893634
40
2.3010067
50
7.8272241
51
20.60421
0
ARC
8
back_labelLayer
10
71.6612426
20
126.194393
40
1.4473221
50
20.4094038
51
41.4479286
0
ARC
8
back_labelLayer
10
71.779055
20
126.2591502
40
1.3164787
50
42.7295592
51
71.0380164
0
ARC
8
back_labelLayer
10
71.5016858
20
125.504974
40
2.1199278
50
70.5716549
51
83.9928397
0
ARC
8
back_labelLayer
10
71.3691774
20
124.4285931
40
3.2043227
50
83.6506973
51
90.1752755
0
ARC
8
back_labelLayer
10
71.3924225
20
123.4106911
40
4.222339
50
90.4484491
51
103.7665485
0
ARC
8
back_labelLayer
10
71.8889543
20
121.3168038
40
6.3742538
50
103.6226692
51
112.4319945
0
ARC
8
back_labelLayer
10
72.7400766
20
119.1677989
40
8.685491
50
112.2122504
51
115.9640993
0
ARC
8
back_labelLayer
10
71.3770759
20
122.7057775
40
5.9794756
50
106.3568562
51
118.3349892
0
ARC
8
back_labelLayer
10
71.6317591
20
121.919069
40
6.806105
50
104.5162192
51
106.5489878
0
ARC
8
back_labelLayer
10
71.4449898
20
122.6972373
40
6.0059807
50
90.0714512
51
104.6521049
0
ARC
8
back_labelLayer
10
71.4685596
20
123.2260051
40
5.4772962
50
81.5679904
51
90.3249037
0
ARC
8
back_labelLayer
10
71.7852487
20
125.2891534
40
3.3900283
50
68.2273435
51
81.74942
0
ARC
8
back_labelLayer
10
72.2263449
20
126.386638
40
2.2072231
50
47.8683207
51
68.2934232
0
ARC
8
back_labelLayer
10
72.2979348
20
126.5295812
40
2.0536365
50
19.2331075
51
46.6741254
0
ARC
8
back_labelLayer
10
71.1053378
20
126.085935
40
3.3259144
50
6.3379308
51
19.6815078
0
ARC
8
back_labelLayer
10
69.342418
20
125.8614122
40
5.1029248
50
359.8026789
51
6.6583549
0
ARC
8
back_labelLayer
10
70.5809121
20
124.4847245
40
3.5706701
50
269.5791896
51
282.0413583
0
ARC
8
back_labelLayer
10
70.8413675
20
123.3294553
40
2.3865236
50
281.7120852
51
306.4594002
0
ARC
8
back_labelLayer
10
70.9568549
20
123.1395312
40
2.1652352
50
306.9880866
51
313.8558897
0
ARC
8
back_labelLayer
10
70.9431183
20
123.1355918
40
2.1719485
50
314.1891913
51
347.4269947
0
ARC
8
back_labelLayer
10
69.8551347
20
123.4082366
40
3.2933221
50
346.917751
51
0.2824611
0
ARC
8
back_labelLayer
10
69.0181153
20
123.4375803
40
4.1303221
50
359.8181646
51
0.0001108
0
ARC
8
back_labelLayer
10
72.1600506
20
114.6389339
40
9.5224026
50
91.8564807
51
96.447853
0
ARC
8
back_labelLayer
10
71.7306215
20
118.3548998
40
5.7817255
50
96.3545638
51
102.995324
0
ARC
8
back_labelLayer
10
71.1476914
20
120.8315964
40
3.2373956
50
102.7995497
51
113.2433252
0
ARC
8
back_labelLayer
10
70.6671505
20
121.9808688
40
1.9917986
50
113.5887
51
121.6804922
0
ARC
8
back_labelLayer
10
70.3332737
20
122.4893564
40
1.3838402
50
120.9734174
51
172.4179646
0
ARC
8
back_labelLayer
10
70.9858639
20
122.3590078
40
2.0483771
50
171.21224
51
180.2057854
0
ARC
8
back_labelLayer
10
70.7908282
20
122.3363382
40
1.8533915
50
179.5266212
51
192.7786986
0
ARC
8
back_labelLayer
10
70.1638531
20
122.1843582
40
1.2083673
50
192.3264618
51
222.0580029
0
ARC
8
back_labelLayer
10
70.1172563
20
122.1565089
40
1.1551632
50
222.5806518
51
229.2545181
0
ARC
8
back_labelLayer
10
70.2748053
20
122.3593582
40
1.4117376
50
229.7836767
51
254.2724618
0
ARC
8
back_labelLayer
10
70.4846962
20
123.0587983
40
2.1419217
50
253.9396806
51
266.4533432
0
ARC
8
back_labelLayer
10
70.5516803
20
123.8309041
40
2.9167548
50
266.0782961
51
270.0590717
0
LINE
8
back_labelLayer
10
82.828125
20
128.2735258
11
82.4296875
21
127.1719633
0
LINE
8
back_labelLayer
10
82.703125
20
121.4375883
11
82.703125
21
120.2891508
0
ARC
8
back_labelLayer
10
80.4976974
20
124.6906054
40
4.8469436
50
256.4243796
51
270.4889831
0
ARC
8
back_labelLayer
10
80.1103806
20
123.17894
40
3.2866697
50
221.797623
51
256.8020567
0
ARC
8
back_labelLayer
10
80.4854523
20
123.4560666
40
3.7512434
50
196.0166605
51
221.134924
0
ARC
8
back_labelLayer
10
82.3705225
20
124.0322425
40
5.7222138
50
183.5913699
51
196.3539657
0
ARC
8
back_labelLayer
10
84.4822654
20
124.2182848
40
7.8416451
50
179.9388733
51
183.981523
0
ARC
8
back_labelLayer
10
83.796123
20
124.2727211
40
7.1556463
50
169.8978391
51
180.3688908
0
ARC
8
back_labelLayer
10
81.3050768
20
124.733529
40
4.6224227
50
153.087513
51
170.1051457
0
ARC
8
back_labelLayer
10
80.3599274
20
125.1851471
40
3.5753066
50
138.65502
51
152.6853568
0
ARC
8
back_labelLayer
10
80.1835208
20
125.3137002
40
3.3580086
50
101.4912937
51
138.3133938
0
ARC
8
back_labelLayer
10
80.5884995
20
123.6282151
40
5.0907539
50
89.5891877
51
102.1787594
0
ARC
8
back_labelLayer
10
80.6196403
20
122.8664087
40
5.852432
50
77.7702433
51
89.9475283
0
ARC
8
back_labelLayer
10
80.5088702
20
122.2553123
40
6.4731597
50
74.6796763
51
77.9578351
0
ARC
8
back_labelLayer
10
81.1072129
20
124.4229958
40
4.2244186
50
70.0945995
51
74.7386074
0
ARC
8
back_labelLayer
10
81.6763724
20
125.9827863
40
2.5640387
50
63.5034352
51
70.186143
0
ARC
8
back_labelLayer
10
81.9534656
20
126.5622718
40
1.9218271
50
62.9274303
51
63.1890112
0
ARC
8
back_labelLayer
10
80.2992482
20
121.8103844
40
5.7693413
50
68.329454
51
74.8831167
0
ARC
8
back_labelLayer
10
79.9949478
20
120.7313979
40
6.8903597
50
74.7801514
51
77.4498037
0
ARC
8
back_labelLayer
10
80.3144419
20
122.2311055
40
5.3570801
50
77.2998698
51
81.7344998
0
ARC
8
back_labelLayer
10
80.547519
20
123.8551702
40
3.7163789
50
81.6910228
51
87.5079043
0
ARC
8
back_labelLayer
10
80.5924877
20
124.6956827
40
2.8747184
50
87.6749117
51
89.9748404
0
ARC
8
back_labelLayer
10
80.5294596
20
124.6944609
40
2.8766584
50
88.7193918
51
112.5667637
0
ARC
8
back_labelLayer
10
80.325054
20
125.3702796
40
2.1752882
50
114.426576
51
161.6632836
0
ARC
8
back_labelLayer
10
82.3556271
20
124.575492
40
4.354333
50
160.1418491
51
175.1368161
0
ARC
8
back_labelLayer
10
85.1504247
20
124.2616575
40
7.1660758
50
174.5309836
51
180.1549654
0
ARC
8
back_labelLayer
10
84.2650073
20
124.2098417
40
6.280716
50
179.7041193
51
188.0743586
0
ARC
8
back_labelLayer
10
82.0027758
20
123.8788535
40
3.9944332
50
187.9315202
51
200.3885256
0
ARC
8
back_labelLayer
10
80.7795609
20
123.4257169
40
2.6899851
50
200.4183561
51
216.6392776
0
ARC
8
back_labelLayer
10
80.2667604
20
123.0591284
40
2.059773
50
216.9695397
51
261.3103027
0
ARC
8
back_labelLayer
10
80.4930705
20
124.1142285
40
3.1376124
50
260.1359577
51
270.2692033
0
ARC
8
back_labelLayer
10
80.4826241
20
126.4054627
40
5.4288704
50
270.2658364
51
286.2891501
0
ARC
8
back_labelLayer
10
80.1525956
20
127.63626
40
6.7028899
50
286.0460515
51
292.3653954
0
ARC
8
back_labelLayer
10
81.0315177
20
123.5776008
40
3.6889259
50
282.0344333
51
296.9454504
0
ARC
8
back_labelLayer
10
80.6521335
20
125.2873478
40
5.4402178
50
272.5980667
51
282.1878304
0
ARC
8
back_labelLayer
10
80.5433399
20
126.956003
40
7.112166
50
269.9655414
51
272.8642614
0
LINE
8
back_labelLayer
10
85.953125
20
124.3829008
11
86.015625
21
124.3829008
0
LINE
8
back_labelLayer
10
87.0390625
20
125.6329008
11
89.8046875
21
128.5625883
0
LINE
8
back_labelLayer
10
89.8046875
20
128.5625883
11
91.34375
21
128.5625883
0
LINE
8
back_labelLayer
10
91.34375
20
128.5625883
11
87.875
21
124.9141508
0
LINE
8
back_labelLayer
10
87.875
20
124.9141508
11
91.5859375
21
120.0000883
0
LINE
8
back_labelLayer
10
91.5859375
20
120.0000883
11
90.015625
21
120.0000883
0
LINE
8
back_labelLayer
10
90.015625
20
120.0000883
11
86.9921875
21
124.0469633
0
LINE
8
back_labelLayer
10
86.9921875
20
124.0469633
11
86.015625
21
123.2032133
0
LINE
8
back_labelLayer
10
86.015625
20
123.2032133
11
86.015625
21
120.0000883
0
LINE
8
back_labelLayer
10
86.015625
20
120.0000883
11
84.734375
21
120.0000883
0
LINE
8
back_labelLayer
10
84.734375
20
120.0000883
11
84.734375
21
132.1563383
0
LINE
8
back_labelLayer
10
84.734375
20
132.1563383
11
86.015625
21
132.1563383
0
LINE
8
back_labelLayer
10
86.015625
20
132.1563383
11
86.015625
21
125.7110258
0
ARC
8
back_labelLayer
10
92.2822224
20
119.9471286
40
7.6776506
50
142.3234142
51
144.7074679
0
ARC
8
back_labelLayer
10
96.3703143
20
116.7938784
40
12.8405449
50
140.4330905
51
142.3365467
0
ARC
8
back_labelLayer
10
101.6976098
20
112.408592
40
19.7405962
50
139.2798732
51
140.4703567
0
ARC
8
back_labelLayer
10
107.8568447
20
107.1121191
40
27.8639447
50
138.341738
51
139.2877753
0
ARC
8
back_labelLayer
10
77.372827
20
125.7272072
40
8.6428132
50
358.2739867
51
359.8927286
0
ARC
8
back_labelLayer
10
70.649482
20
125.9145839
40
15.3687589
50
357.5041774
51
358.3307124
0
ARC
8
back_labelLayer
10
60.586549
20
126.3590531
40
25.441502
50
356.6325368
51
357.4910219
0
ARC
8
back_labelLayer
10
43.8627908
20
127.3344256
40
42.1936778
50
356.0329088
51
356.6442918
0
ARC
8
back_labelLayer
10
31.7085813
20
128.1563118
40
54.3756301
50
356.0207462
51
356.0549878
0
LINE
8
right_outsideCutPath
10
156
20
166
11
156
21
138
0
LINE
8
right_outsideCutPath
10
156
20
138
11
153
21
138
0
LINE
8
right_outsideCutPath
10
153
20
138
11
153
21
114
0
LINE
8
right_outsideCutPath
10
153
20
114
11
156
21
114
0
LINE
8
right_outsideCutPath
10
156
20
114
11
156
21
90
0
LINE
8
right_outsideCutPath
10
156
20
90
11
156
21
86
0
LINE
8
right_outsideCutPath
10
156
20
86
11
168
21
86
0
LINE
8
right_outsideCutPath
10
168
20
86
11
168
21
89
0
LINE
8
right_outsideCutPath
10
168
20
89
11
192
21
89
0
LINE
8
right_outsideCutPath
10
192
20
89
11
192
21
86
0
LINE
8
right_outsideCutPath
10
192
20
86
11
216
21
86
0
LINE
8
right_outsideCutPath
10
216
20
86
11
216
21
89
0
LINE
8
right_outsideCutPath
10
216
20
89
11
240
21
89
0
LINE
8
right_outsideCutPath
10
240
20
89
11
240
21
86
0
LINE
8
right_outsideCutPath
10
240
20
86
11
264
21
86
0
LINE
8
right_outsideCutPath
10
264
20
86
11
264
21
89
0
LINE
8
right_outsideCutPath
10
264
20
89
11
288
21
89
0
LINE
8
right_outsideCutPath
10
288
20
89
11
288
21
86
0
LINE
8
right_outsideCutPath
10
288
20
86
11
300
21
86
0
LINE
8
right_outsideCutPath
10
300
20
86
11
300
21
114
0
LINE
8
right_outsideCutPath
10
300
20
114
11
303
21
114
0
LINE
8
right_outsideCutPath
10
303
20
114
11
303
21
138
0
LINE
8
right_outsideCutPath
10
303
20
138
11
300
21
138
0
LINE
8
right_outsideCutPath
10
300
20
138
11
300
21
162
0
LINE
8
right_outsideCutPath
10
300
20
162
11
300
21
166
0
LINE
8
right_outsideCutPath
10
300
20
166
11
288
21
166
0
LINE
8
right_outsideCutPath
10
288
20
166
11
288
21
163
0
LINE
8
right_outsideCutPath
10
288
20
163
11
264
21
163
0
LINE
8
right_outsideCutPath
10
264
20
163
11
264
21
166
0
LINE
8
right_outsideCutPath
10
264
20
166
11
240
21
166
0
LINE
8
right_outsideCutPath
10
240
20
166
11
240
21
163
0
LINE
8
right_outsideCutPath
10
240
20
163
11
216
21
163
0
LINE
8
right_outsideCutPath
10
216
20
163
11
216
21
166
0
LINE
8
right_outsideCutPath
10
216
20
166
11
192
21
166
0
LINE
8
right_outsideCutPath
10
192
20
166
11
192
21
163
0
LINE
8
right_outsideCutPath
10
192
20
163
11
168
21
163
0
LINE
8
right_outsideCutPath
10
168
20
163
11
168
21
166
0
LINE
8
right_outsideCutPath
10
168
20
166
11
156
21
166
0
LINE
8
right_labelLayer
10
216.3789062
20
130.4687972
11
216.1992187
21
129.2656722
0
LINE
8
right_labelLayer
10
212.7460937
20
126.4375472
11
212.7460937
21
121.8437972
0
LINE
8
right_labelLayer
10
212.7460937
20
121.8437972
11
211.4492187
21
121.8437972
0
LINE
8
right_labelLayer
10
211.4492187
20
121.8437972
11
211.4492187
21
130.4062972
0
LINE
8
right_labelLayer
10
211.4492187
20
130.4062972
11
212.5195312
21
130.4062972
0
LINE
8
right_labelLayer
10
212.5195312
20
130.4062972
11
212.6679687
21
128.8203597
0
LINE
8
right_labelLayer
10
212.6679687
20
128.8203597
11
212.7304687
21
128.8203597
0
ARC
8
right_labelLayer
10
215.368778
20
124.6088114
40
5.9537507
50
84.9922713
51
90.1280813
0
ARC
8
right_labelLayer
10
215.5117686
20
126.2108072
40
4.3453892
50
78.4891492
51
85.0266376
0
ARC
8
right_labelLayer
10
214.9567974
20
123.6866322
40
5.7157063
50
77.4454105
51
81.6360423
0
ARC
8
right_labelLayer
10
215.2058256
20
125.4031613
40
3.9812118
50
81.5884353
51
87.1916597
0
ARC
8
right_labelLayer
10
215.2599127
20
126.3411176
40
3.0417427
50
87.3436103
51
89.9659798
0
ARC
8
right_labelLayer
10
215.2473465
20
127.1358053
40
2.2471004
50
89.6335396
51
137.0880816
0
ARC
8
right_labelLayer
10
215.7988416
20
126.5156396
40
3.0742781
50
135.6209563
51
138.8377529
0
ARC
8
right_labelLayer
10
215.7180166
20
126.5945291
40
2.9615112
50
138.9575743
51
174.5422303
0
ARC
8
right_labelLayer
10
216.6825373
20
126.4436104
40
3.9364483
50
173.6907646
51
180.0882507
0
ARC
8
right_labelLayer
10
216.5461586
20
126.6706161
40
4.3795989
50
139.4139392
51
150.6032715
0
ARC
8
right_labelLayer
10
215.7608853
20
127.3435128
40
3.3454596
50
124.2321394
51
139.4161176
0
ARC
8
right_labelLayer
10
215.3410144
20
127.9773072
40
2.5852804
50
89.6796567
51
124.4405686
0
LINE
8
right_labelLayer
10
219.2773437
20
130.4062972
11
219.2773437
21
121.8437972
0
LINE
8
right_labelLayer
10
219.2773437
20
121.8437972
11
217.9804687
21
121.8437972
0
LINE
8
right_labelLayer
10
217.9804687
20
121.8437972
11
217.9804687
21
130.4062972
0
LINE
8
right_labelLayer
10
217.9804687
20
130.4062972
11
219.2773437
21
130.4062972
0
ARC
8
right_labelLayer
10
219.3081669
20
132.7354996
40
1.4371007
50
170.8451929
51
180.3544315
0
ARC
8
right_labelLayer
10
218.7701749
20
132.8254528
40
0.8916556
50
155.9678998
51
171.0515555
0
ARC
8
right_labelLayer
10
218.5095949
20
132.9410573
40
0.6065839
50
133.7879925
51
155.9171675
0
ARC
8
right_labelLayer
10
218.6057995
20
132.8346989
40
0.7499489
50
92.6445887
51
133.4710399
0
ARC
8
right_labelLayer
10
218.6361844
20
132.5960776
40
0.9899071
50
89.9690735
51
93.7642022
0
ARC
8
right_labelLayer
10
218.6485596
20
132.8219743
40
0.7641022
50
46.3708172
51
90.8879144
0
ARC
8
right_labelLayer
10
218.7246062
20
132.9004823
40
0.6548059
50
17.7251796
51
46.4473337
0
ARC
8
right_labelLayer
10
218.3699893
20
132.7783644
40
1.0298013
50
4.9427697
51
18.1901489
0
ARC
8
right_labelLayer
10
217.9188279
20
132.7295911
40
1.483519
50
359.8848562
51
5.3181586
0
ARC
8
right_labelLayer
10
218.0605614
20
132.7174979
40
1.3418133
50
349.8344934
51
0.3890796
0
ARC
8
right_labelLayer
10
218.5490648
20
132.6263685
40
0.8449019
50
332.6321368
51
350.0706105
0
ARC
8
right_labelLayer
10
218.7391968
20
132.5324804
40
0.6329031
50
313.6152591
51
332.2678043
0
ARC
8
right_labelLayer
10
218.6475614
20
132.6159169
40
0.7565724
50
269.1788465
51
314.2807503
0
ARC
8
right_labelLayer
10
218.6281238
20
132.6831763
40
0.8237989
50
250.5000121
51
270.5977978
0
ARC
8
right_labelLayer
10
218.6031927
20
132.5899514
40
0.7276391
50
225.1300958
51
249.9001432
0
ARC
8
right_labelLayer
10
218.5641581
20
132.5468322
40
0.6695468
50
197.7933368
51
224.8942189
0
ARC
8
right_labelLayer
10
218.9294965
20
132.672029
40
1.0556946
50
184.9925847
51
198.2039809
0
ARC
8
right_labelLayer
10
219.4022404
20
132.7234176
40
1.5311501
50
179.8805501
51
185.3687451
0
LINE
8
right_labelLayer
10
226.0742187
20
130.4062972
11
229.0351562
21
130.4062972
0
LINE
8
right_labelLayer
10
229.0351562
20
130.4062972
11
229.0351562
21
129.5859847
0
LINE
8
right_labelLayer
10
229.0351562
20
129.5859847
11
227.4492187
21
129.3984847
0
LINE
8
right_labelLayer
10
224.5273437
20
123.2031722
11
226.0429687
21
123.2031722
0
LINE
8
right_labelLayer
10
225.6289062
20
122.0391097
11
224.0742187
21
122.0391097
0
ARC
8
right_labelLayer
10
225.7965438
20
128.090578
40
2.1075944
50
29.4584503
51
38.3576618
0
ARC
8
right_labelLayer
10
224.9353363
20
127.5989478
40
3.0992419
50
23.1845468
51
29.5422589
0
ARC
8
right_labelLayer
10
224.1137129
20
127.2345829
40
3.997977
50
21.2506013
51
23.3489421
0
ARC
8
right_labelLayer
10
225.5103557
20
127.7900321
40
2.4950053
50
6.8504661
51
20.9871833
0
ARC
8
right_labelLayer
10
224.8076721
20
127.6947585
40
3.2040547
50
359.8710468
51
7.043209
0
ARC
8
right_labelLayer
10
225.0388561
20
127.6566341
40
2.9730234
50
342.5649681
51
0.5957656
0
ARC
8
right_labelLayer
10
225.5871686
20
127.5052245
40
2.4046177
50
310.6097915
51
342.0923649
0
ARC
8
right_labelLayer
10
225.2796934
20
127.8628758
40
2.8762692
50
284.9315958
51
310.6222661
0
ARC
8
right_labelLayer
10
224.894926
20
129.2111523
40
4.2782306
50
272.5334874
51
285.257981
0
ARC
8
right_labelLayer
10
224.7959975
20
130.5624296
40
5.6326958
50
269.9691918
51
272.9312255
0
ARC
8
right_labelLayer
10
224.7837217
20
129.0976939
40
4.1679694
50
263.4836818
51
270.1271167
0
ARC
8
right_labelLayer
10
224.7158285
20
128.4528333
40
3.5195747
50
259.4963872
51
263.3904314
0
ARC
8
right_labelLayer
10
225.1360125
20
122.9432613
40
2.3077474
50
117.3935386
51
128.4095155
0
ARC
8
right_labelLayer
10
224.5418999
20
123.6803012
40
1.3611225
50
128.0881541
51
147.1400821
0
ARC
8
right_labelLayer
10
224.2218386
20
123.8950864
40
0.9757549
50
147.5369311
51
180.2591968
0
ARC
8
right_labelLayer
10
223.9181982
20
123.8823655
40
0.6721558
50
179.2919037
51
198.3580538
0
ARC
8
right_labelLayer
10
223.7923489
20
123.8492907
40
0.542357
50
199.2291328
51
239.5690824
0
ARC
8
right_labelLayer
10
223.89664
20
123.9933755
40
0.7196154
50
238.2197804
51
239.8457862
0
ARC
8
right_labelLayer
10
223.9799393
20
124.1647152
40
0.9097208
50
240.7302085
51
254.5027038
0
ARC
8
right_labelLayer
10
224.2282352
20
125.0203392
40
1.8006114
50
254.1637543
51
262.2122782
0
ARC
8
right_labelLayer
10
224.4249069
20
126.3940342
40
3.1882982
50
262.0556165
51
267.208298
0
ARC
8
right_labelLayer
10
224.5199076
20
128.1365818
40
4.933415
50
267.0919627
51
270.0863618
0
ARC
8
right_labelLayer
10
226.0713167
20
117.8945827
40
5.3086652
50
81.5744238
51
90.3059577
0
ARC
8
right_labelLayer
10
226.3625093
20
119.793685
40
3.3874073
50
68.3671507
51
81.7399229
0
ARC
8
right_labelLayer
10
226.7428324
20
120.7656539
40
2.3436946
50
52.1879889
51
68.250086
0
ARC
8
right_labelLayer
10
227.0089568
20
121.1242404
40
1.8972723
50
8.6201351
51
51.89825
0
ARC
8
right_labelLayer
10
226.0762671
20
120.9268894
40
2.8495428
50
359.7430385
51
9.7326771
0
ARC
8
right_labelLayer
10
226.1180204
20
120.8788164
40
2.8079827
50
340.526895
51
0.7201648
0
ARC
8
right_labelLayer
10
226.5305815
20
120.7760948
40
2.385124
50
302.9903657
51
339.5494486
0
ARC
8
right_labelLayer
10
226.0968278
20
121.3274373
40
3.0844033
50
303.1871841
51
304.1720914
0
ARC
8
right_labelLayer
10
225.6938786
20
122.0252533
40
3.8892184
50
286.2542334
51
302.5279886
0
ARC
8
right_labelLayer
10
224.9593661
20
124.4480175
40
6.4207897
50
276.4939817
51
286.4953634
0
ARC
8
right_labelLayer
10
224.5010716
20
128.2790928
40
10.27914
50
269.754519
51
276.616965
0
ARC
8
right_labelLayer
10
224.4228045
20
125.2660136
40
7.266047
50
262.5634723
51
270.2698931
0
ARC
8
right_labelLayer
10
224.0669263
20
122.6282606
40
4.6044344
50
251.2101967
51
262.7064032
0
ARC
8
right_labelLayer
10
223.5539897
20
121.1227131
40
3.0139072
50
235.9668198
51
251.2228927
0
ARC
8
right_labelLayer
10
223.0103184
20
120.3471061
40
2.0669386
50
208.9036318
51
236.4231403
0
ARC
8
right_labelLayer
10
223.0602294
20
120.3261833
40
2.1009483
50
182.2079869
51
207.7461442
0
ARC
8
right_labelLayer
10
223.6955548
20
120.3896418
40
2.7385237
50
179.9784403
51
183.0225986
0
ARC
8
right_labelLayer
10
222.9397103
20
120.4254623
40
1.9829843
50
138.3916098
51
181.0052659
0
ARC
8
right_labelLayer
10
223.1491178
20
120.2372671
40
2.2645275
50
113.8121522
51
138.3496162
0
ARC
8
right_labelLayer
10
223.546334
20
119.3795116
40
3.209683
50
102.2870796
51
114.1172833
0
ARC
8
right_labelLayer
10
223.4215194
20
123.7404376
40
1.3459867
50
216.5861569
51
245.496887
0
ARC
8
right_labelLayer
10
223.6140814
20
123.9038198
40
1.5980715
50
215.4650037
51
217.1747538
0
ARC
8
right_labelLayer
10
223.2932597
20
123.6720951
40
1.2023267
50
182.176738
51
215.341565
0
ARC
8
right_labelLayer
10
223.578807
20
123.7027444
40
1.4889633
50
179.9835356
51
182.9379593
0
ARC
8
right_labelLayer
10
223.5728419
20
123.7157087
40
1.4830512
50
161.7226054
51
180.4843365
0
ARC
8
right_labelLayer
10
223.4097847
20
123.7602003
40
1.3142969
50
144.4963456
51
161.3350191
0
ARC
8
right_labelLayer
10
223.8444611
20
123.4362386
40
1.8563345
50
132.7259622
51
144.1478835
0
ARC
8
right_labelLayer
10
224.5410741
20
122.6923387
40
2.875464
50
125.2212378
51
132.8655697
0
ARC
8
right_labelLayer
10
225.241454
20
121.7197763
40
4.0739299
50
121.235226
51
125.3794755
0
ARC
8
right_labelLayer
10
223.9998718
20
127.3032541
40
2.273527
50
215.1640816
51
247.4747799
0
ARC
8
right_labelLayer
10
224.4242324
20
127.6457383
40
2.8179126
50
212.4714458
51
215.8876443
0
ARC
8
right_labelLayer
10
224.3126631
20
127.5659132
40
2.6809398
50
183.0160878
51
212.3123137
0
ARC
8
right_labelLayer
10
224.9009668
20
127.6314828
40
3.2720607
50
179.9758883
51
183.6206412
0
ARC
8
right_labelLayer
10
225.3756656
20
127.6645064
40
3.7468931
50
166.8195799
51
180.4839318
0
ARC
8
right_labelLayer
10
224.1326701
20
127.9783361
40
2.4651825
50
132.3287668
51
167.3340932
0
ARC
8
right_labelLayer
10
224.2989662
20
127.7392997
40
2.7541439
50
106.2188878
51
131.5377583
0
ARC
8
right_labelLayer
10
224.7197248
20
126.3769186
40
4.1798918
50
93.6329621
51
106.5408733
0
ARC
8
right_labelLayer
10
224.8570887
20
124.8347394
40
5.7278113
50
89.9380554
51
94.0267682
0
ARC
8
right_labelLayer
10
224.8793263
20
125.591578
40
4.9709951
50
82.5852046
51
90.1849366
0
ARC
8
right_labelLayer
10
225.0312173
20
126.7667871
40
3.7860118
50
74.0088933
51
82.5694379
0
ARC
8
right_labelLayer
10
223.5094072
20
120.3885832
40
1.3024964
50
179.2207509
51
200.9355353
0
ARC
8
right_labelLayer
10
223.3545155
20
120.3527191
40
1.1452237
50
202.0287142
51
236.1457385
0
ARC
8
right_labelLayer
10
223.5878986
20
120.6490381
40
1.5215892
50
235.0634381
51
238.5043421
0
ARC
8
right_labelLayer
10
223.8593419
20
121.1338565
40
2.07691
50
239.1066155
51
254.4862901
0
ARC
8
right_labelLayer
10
224.2211812
20
122.3814711
40
3.3758836
50
254.23242
51
263.493734
0
ARC
8
right_labelLayer
10
224.4484706
20
124.3065962
40
5.31437
50
263.4108694
51
270.1457266
0
ARC
8
right_labelLayer
10
224.4727768
20
125.7596661
40
6.7674314
50
269.9086509
51
269.9989793
0
ARC
8
right_labelLayer
10
224.5037351
20
127.7104715
40
8.7182921
50
269.7957526
51
275.399099
0
ARC
8
right_labelLayer
10
224.8300386
20
124.3606521
40
5.3526404
50
275.2956694
51
283.3516212
0
ARC
8
right_labelLayer
10
225.3616399
20
122.1710973
40
3.0995274
50
283.1370677
51
295.8572972
0
ARC
8
right_labelLayer
10
225.7555665
20
121.3111115
40
2.1539354
50
296.4047126
51
301.8009312
0
ARC
8
right_labelLayer
10
225.9099833
20
121.0982769
40
1.8917739
50
301.2230791
51
318.6238183
0
ARC
8
right_labelLayer
10
226.2583125
20
120.7765111
40
1.4177497
50
319.076571
51
1.1406841
0
ARC
8
right_labelLayer
10
225.9211934
20
120.8186339
40
1.7546429
50
359.5461357
51
10.9904663
0
ARC
8
right_labelLayer
10
226.5989561
20
120.9564899
40
1.0630471
50
10.6608729
51
30.9361845
0
ARC
8
right_labelLayer
10
226.8138489
20
121.0757479
40
0.8174573
50
31.5095576
51
58.0777843
0
ARC
8
right_labelLayer
10
226.612437
20
120.7151094
40
1.2302138
50
58.9972938
51
73.8585538
0
ARC
8
right_labelLayer
10
226.2053507
20
119.3824247
40
2.6236161
50
73.4100051
51
81.5907063
0
ARC
8
right_labelLayer
10
225.8604296
20
117.1503104
40
4.8821968
50
81.4172473
51
86.5756881
0
ARC
8
right_labelLayer
10
225.6490577
20
113.7872833
40
8.2518511
50
86.5054136
51
90.1399198
0
ARC
8
right_labelLayer
10
224.0556705
20
119.0580318
40
2.9811356
50
89.6435107
51
100.0209151
0
ARC
8
right_labelLayer
10
223.8683008
20
120.0773054
40
1.9448212
50
99.8102765
51
116.8229441
0
ARC
8
right_labelLayer
10
223.6857787
20
120.4622181
40
1.5190009
50
117.2304074
51
130.5023697
0
ARC
8
right_labelLayer
10
223.592071
20
120.5826534
40
1.366581
50
130.7944675
51
169.0413539
0
ARC
8
right_labelLayer
10
224.2821654
20
120.4201329
40
2.0751804
50
168.258042
51
180.3820061
0
ARC
8
right_labelLayer
10
225.441551
20
127.6447475
40
2.5314689
50
179.5617623
51
191.6528991
0
ARC
8
right_labelLayer
10
224.5613873
20
127.4545849
40
1.6310585
50
191.3555142
51
213.3660418
0
ARC
8
right_labelLayer
10
224.350017
20
127.3325379
40
1.3874773
50
213.9574036
51
227.7971475
0
ARC
8
right_labelLayer
10
224.533914
20
127.5555765
40
1.6762873
50
228.2620793
51
254.7341324
0
ARC
8
right_labelLayer
10
224.7688549
20
128.3609601
40
2.5151544
50
254.4016616
51
267.4348652
0
ARC
8
right_labelLayer
10
224.8301488
20
129.1828995
40
3.3391029
50
267.0153825
51
270.0323008
0
ARC
8
right_labelLayer
10
224.8702124
20
128.6688433
40
2.825304
50
269.2256806
51
284.3773355
0
ARC
8
right_labelLayer
10
225.2552971
20
127.3272068
40
1.4306228
50
282.7796707
51
346.482841
0
ARC
8
right_labelLayer
10
224.1039949
20
127.6533216
40
2.626697
50
345.436203
51
0.7465812
0
ARC
8
right_labelLayer
10
223.9421573
20
127.7274248
40
2.7885965
50
359.1806304
51
15.0431588
0
ARC
8
right_labelLayer
10
225.2057212
20
128.0960192
40
1.472933
50
13.9535587
51
77.6673824
0
ARC
8
right_labelLayer
10
224.843192
20
126.7968647
40
2.8205822
50
76.1095214
51
90.702828
0
ARC
8
right_labelLayer
10
224.7889282
20
126.8961017
40
2.7212041
50
89.585933
51
101.3334316
0
ARC
8
right_labelLayer
10
224.5944607
20
127.8236205
40
1.7735754
50
101.0620341
51
121.9739369
0
ARC
8
right_labelLayer
10
224.4577899
20
128.0694781
40
1.4927134
50
122.5210462
51
134.9966636
0
ARC
8
right_labelLayer
10
224.5140639
20
128.0357619
40
1.5564268
50
135.5839955
51
163.0015957
0
ARC
8
right_labelLayer
10
225.3359731
20
127.7663688
40
2.4212471
50
162.5911911
51
175.7343166
0
ARC
8
right_labelLayer
10
226.3217514
20
127.6692564
40
3.411599
50
175.3393144
51
180.0864358
0
LINE
8
right_labelLayer
10
237.9492187
20
121.8437972
11
236.6523437
21
121.8437972
0
LINE
8
right_labelLayer
10
236.6523437
20
121.8437972
11
236.6523437
21
127.3828597
0
LINE
8
right_labelLayer
10
232.0898437
20
126.3203597
11
232.0898437
21
121.8437972
0
LINE
8
right_labelLayer
10
232.0898437
20
121.8437972
11
230.7929687
21
121.8437972
0
LINE
8
right_labelLayer
10
230.7929687
20
121.8437972
11
230.7929687
21
134.0000472
0
LINE
8
right_labelLayer
10
230.7929687
20
134.0000472
11
232.0898437
21
134.0000472
0
LINE
8
right_labelLayer
10
232.0898437
20
134.0000472
11
232.0898437
21
130.3203597
0
LINE
8
right_labelLayer
10
232.0273437
20
129.2187972
11
232.1054687
21
129.2187972
0
LINE
8
right_labelLayer
10
237.9492187
20
127.4297347
11
237.9492187
21
121.8437972
0
ARC
8
right_labelLayer
10
232.9864565
20
127.4038836
40
3.6659475
50
359.6714116
51
8.6877042
0
ARC
8
right_labelLayer
10
234.3451543
20
127.6193614
40
2.2903044
50
8.4931757
51
22.6579516
0
ARC
8
right_labelLayer
10
235.0354821
20
127.9062394
40
1.5427422
50
22.7024126
51
42.3419703
0
ARC
8
right_labelLayer
10
235.113074
20
127.941142
40
1.4621218
50
43.3790871
51
71.5385936
0
ARC
8
right_labelLayer
10
234.8229113
20
127.1303525
40
2.3231437
50
71.0827949
51
84.3691365
0
ARC
8
right_labelLayer
10
234.6926584
20
126.0229136
40
3.4380831
50
84.019775
51
90.1510624
0
ARC
8
right_labelLayer
10
234.655644
20
125.5365547
40
3.9245296
50
89.5919476
51
100.3595233
0
ARC
8
right_labelLayer
10
234.3777499
20
126.9969205
40
2.4380212
50
100.1067709
51
118.0847553
0
ARC
8
right_labelLayer
10
234.0951111
20
127.5515243
40
1.8156989
50
118.455102
51
139.6706198
0
ARC
8
right_labelLayer
10
234.3788632
20
127.3575747
40
2.1578307
50
140.6208173
51
160.504905
0
ARC
8
right_labelLayer
10
235.8745556
20
126.8038746
40
3.7526286
50
160.1567147
51
171.5312662
0
ARC
8
right_labelLayer
10
238.2945992
20
126.4204475
40
6.2027942
50
171.3202239
51
178.3406613
0
ARC
8
right_labelLayer
10
240.4594264
20
126.3237197
40
8.3695834
50
178.1079017
51
180.0230012
0
ARC
8
right_labelLayer
10
220.4236682
20
130.3064532
40
11.6661838
50
357.8673888
51
0.0682986
0
ARC
8
right_labelLayer
10
224.3868423
20
130.1552436
40
7.7001288
50
354.9828242
51
357.8943641
0
ARC
8
right_labelLayer
10
227.0038286
20
129.9273649
40
5.0732409
50
351.9713841
51
354.9618031
0
ARC
8
right_labelLayer
10
234.302156
20
127.844693
40
2.591061
50
119.8316015
51
147.9725895
0
ARC
8
right_labelLayer
10
234.6159366
20
127.3626548
40
3.1654817
50
116.6658266
51
120.4182537
0
ARC
8
right_labelLayer
10
234.674488
20
127.2088316
40
3.3292632
50
96.6652506
51
116.3782524
0
ARC
8
right_labelLayer
10
234.800712
20
126.3379553
40
4.2089742
50
89.8927082
51
96.9959023
0
ARC
8
right_labelLayer
10
234.8410764
20
125.2854172
40
5.2616053
50
80.6863017
51
90.3537198
0
ARC
8
right_labelLayer
10
235.1686974
20
127.2124381
40
3.3069859
50
65.6022778
51
80.8843931
0
ARC
8
right_labelLayer
10
235.5621156
20
128.0985005
40
2.337553
50
46.7400626
51
65.4130959
0
ARC
8
right_labelLayer
10
235.588853
20
128.1829223
40
2.2580756
50
19.220418
51
45.7660846
0
ARC
8
right_labelLayer
10
234.2868274
20
127.7002503
40
3.6465232
50
6.4733797
51
19.6468024
0
ARC
8
right_labelLayer
10
232.3412945
20
127.4498481
40
5.6079603
50
359.7945043
51
6.7744037
0
LINE
8
right_labelLayer
10
244.5507812
20
122.9141097
11
244.5507812
21
121.9219222
0
LINE
8
right_labelLayer
10
240.7070312
20
124.3047347
11
240.7070312
21
129.3984847
0
LINE
8
right_labelLayer
10
240.7070312
20
129.3984847
11
239.4804687
21
129.3984847
0
LINE
8
right_labelLayer
10
239.4804687
20
129.3984847
11
239.4804687
21
130.0234847
0
LINE
8
right_labelLayer
10
239.4804687
20
130.0234847
11
240.7070312
21
130.5625472
0
LINE
8
right_labelLayer
10
240.7070312
20
130.5625472
11
241.2539062
21
132.3906722
0
LINE
8
right_labelLayer
10
241.2539062
20
132.3906722
11
242.0039062
21
132.3906722
0
LINE
8
right_labelLayer
10
242.0039062
20
132.3906722
11
242.0039062
21
130.4062972
0
LINE
8
right_labelLayer
10
242.0039062
20
130.4062972
11
244.4882812
21
130.4062972
0
LINE
8
right_labelLayer
10
244.4882812
20
130.4062972
11
244.4882812
21
129.3984847
0
LINE
8
right_labelLayer
10
244.4882812
20
129.3984847
11
242.0039062
21
129.3984847
0
LINE
8
right_labelLayer
10
242.0039062
20
129.3984847
11
242.0039062
21
124.3594222
0
ARC
8
right_labelLayer
10
243.3878
20
127.0169667
40
4.2591162
50
269.8803567
51
278.3028318
0
ARC
8
right_labelLayer
10
243.428457
20
126.6850128
40
3.9247782
50
278.4153127
51
279.0079991
0
ARC
8
right_labelLayer
10
242.9503347
20
129.7392989
40
7.0162574
50
278.9590721
51
280.5103649
0
ARC
8
right_labelLayer
10
243.4059925
20
127.2944091
40
4.5292706
50
280.4846589
51
282.6269548
0
ARC
8
right_labelLayer
10
243.8053454
20
125.5202581
40
2.7107303
50
282.5876285
51
285.5795817
0
ARC
8
right_labelLayer
10
244.0047077
20
124.786932
40
1.9508101
50
285.7239904
51
286.255517
0
ARC
8
right_labelLayer
10
244.0055361
20
123.0751481
40
1.2756262
50
287.9888574
51
295.3047808
0
ARC
8
right_labelLayer
10
243.697861
20
124.0060175
40
2.2560173
50
283.3069695
51
288.1197178
0
ARC
8
right_labelLayer
10
243.3728274
20
125.3618649
40
3.6502763
50
280.0070407
51
283.3734265
0
ARC
8
right_labelLayer
10
243.1555988
20
126.5406625
40
4.8488964
50
279.1861309
51
280.1143916
0
ARC
8
right_labelLayer
10
243.0218963
20
127.3011653
40
5.6210002
50
275.5260636
51
279.2939685
0
ARC
8
right_labelLayer
10
243.1723196
20
125.7300519
40
4.0427032
50
270.8933019
51
275.5483393
0
ARC
8
right_labelLayer
10
243.1912236
20
125.01223
40
3.3246827
50
270.0031482
51
270.7604232
0
ARC
8
right_labelLayer
10
243.1390733
20
125.0743941
40
3.3872511
50
253.7848117
51
270.8852531
0
ARC
8
right_labelLayer
10
242.7377742
20
123.7058089
40
1.9610501
50
190.3817602
51
253.8772488
0
ARC
8
right_labelLayer
10
244.7831857
20
124.2588527
40
4.0764128
50
179.3550948
51
192.8477675
0
ARC
8
right_labelLayer
10
244.6153232
20
124.3430894
40
2.6114681
50
179.6416537
51
189.7506186
0
ARC
8
right_labelLayer
10
243.6934233
20
124.178655
40
1.6750477
50
189.5479202
51
205.787396
0
ARC
8
right_labelLayer
10
243.3145626
20
124.0039486
40
1.2579354
50
206.1294055
51
221.4084301
0
ARC
8
right_labelLayer
10
243.2720866
20
123.971718
40
1.2047661
50
221.5949113
51
262.3505133
0
ARC
8
right_labelLayer
10
243.3731184
20
124.4912558
40
1.7334058
50
261.3265906
51
270.1913121
0
LINE
8
bottom_outsideCutPath
10
309
20
303
11
309
21
291
0
LINE
8
bottom_outsideCutPath
10
309
20
291
11
306
21
291
0
LINE
8
bottom_outsideCutPath
10
306
20
291
11
306
21
267
0
LINE
8
bottom_outsideCutPath
10
306
20
267
11
309
21
267
0
LINE
8
bottom_outsideCutPath
10
309
20
267
11
309
21
243
0
LINE
8
bottom_outsideCutPath
10
309
20
243
11
306
21
243
0
LINE
8
bottom_outsideCutPath
10
306
20
243
11
306
21
219
0
LINE
8
bottom_outsideCutPath
10
306
20
219
11
309
21
219
0
LINE
8
bottom_outsideCutPath
10
309
20
219
11
309
21
195
0
LINE
8
bottom_outsideCutPath
10
309
20
195
11
306
21
195
0
LINE
8
bottom_outsideCutPath
10
306
20
195
11
306
21
171
0
LINE
8
bottom_outsideCutPath
10
306
20
171
11
309
21
171
0
LINE
8
bottom_outsideCutPath
10
309
20
171
11
309
21
159
0
LINE
8
bottom_outsideCutPath
10
309
20
159
11
321
21
159
0
LINE
8
bottom_outsideCutPath
10
321
20
159
11
321
21
156
0
LINE
8
bottom_outsideCutPath
10
321
20
156
11
345
21
156
0
LINE
8
bottom_outsideCutPath
10
345
20
156
11
345
21
159
0
LINE
8
bottom_outsideCutPath
10
345
20
159
11
369
21
159
0
LINE
8
bottom_outsideCutPath
10
369
20
159
11
369
21
156
0
LINE
8
bottom_outsideCutPath
10
369
20
156
11
393
21
156
0
LINE
8
bottom_outsideCutPath
10
393
20
156
11
393
21
159
0
LINE
8
bottom_outsideCutPath
10
393
20
159
11
417
21
159
0
LINE
8
bottom_outsideCutPath
10
417
20
159
11
417
21
156
0
LINE
8
bottom_outsideCutPath
10
417
20
156
11
441
21
156
0
LINE
8
bottom_outsideCutPath
10
441
20
156
11
441
21
159
0
LINE
8
bottom_outsideCutPath
10
441
20
159
11
453
21
159
0
LINE
8
bottom_outsideCutPath
10
453
20
159
11
453
21
171
0
LINE
8
bottom_outsideCutPath
10
453
20
171
11
456
21
171
0
LINE
8
bottom_outsideCutPath
10
456
20
171
11
456
21
195
0
LINE
8
bottom_outsideCutPath
10
456
20
195
11
453
21
195
0
LINE
8
bottom_outsideCutPath
10
453
20
195
11
453
21
219
0
LINE
8
bottom_outsideCutPath
10
453
20
219
11
456
21
219
0
LINE
8
bottom_outsideCutPath
10
456
20
219
11
456
21
243
0
LINE
8
bottom_outsideCutPath
10
456
20
243
11
453
21
243
0
LINE
8
bottom_outsideCutPath
10
453
20
243
11
453
21
267
0
LINE
8
bottom_outsideCutPath
10
453
20
267
11
456
21
267
0
LINE
8
bottom_outsideCutPath
10
456
20
267
11
456
21
291
0
LINE
8
bottom_outsideCutPath
10
456
20
291
11
453
21
291
0
LINE
8
bottom_outsideCutPath
10
453
20
291
11
453
21
303
0
LINE
8
bottom_outsideCutPath
10
453
20
303
11
441
21
303
0
LINE
8
bottom_outsideCutPath
10
441
20
303
11
441
21
306
0
LINE
8
bottom_outsideCutPath
10
441
20
306
11
417
21
306
0
LINE
8
bottom_outsideCutPath
10
417
20
306
11
417
21
303
0
LINE
8
bottom_outsideCutPath
10
417
20
303
11
393
21
303
0
LINE
8
bottom_outsideCutPath
10
393
20
303
11
393
21
306
0
LINE
8
bottom_outsideCutPath
10
393
20
306
11
369
21
306
0
LINE
8
bottom_outsideCutPath
10
369
20
306
11
369
21
303
0
LINE
8
bottom_outsideCutPath
10
369
20
303
11
345
21
303
0
LINE
8
bottom_outsideCutPath
10
345
20
303
11
345
21
306
0
LINE
8
bottom_outsideCutPath
10
345
20
306
11
321
21
306
0
LINE
8
bottom_outsideCutPath
10
321
20
306
11
321
21
303
0
LINE
8
bottom_outsideCutPath
10
321
20
303
11
309
21
303
0
LINE
8
bottom_labelLayer
10
334.0809836
20
221.8158087
11
333.9052023
21
221.8158087
0
LINE
8
bottom_labelLayer
10
333.9052023
20
221.8158087
11
333.392507
21
219.750379
0
LINE
8
bottom_labelLayer
10
333.392507
20
219.750379
11
331.649343
21
219.750379
0
LINE
8
bottom_labelLayer
10
331.649343
20
219.750379
11
331.649343
21
242.5433478
0
LINE
8
bottom_labelLayer
10
331.649343
20
242.5433478
11
334.0809836
21
242.5433478
0
LINE
8
bottom_labelLayer
10
334.0809836
20
242.5433478
11
334.0809836
21
237.0062384
0
LINE
8
bottom_labelLayer
10
333.9637961
20
233.6663947
11
334.0809836
21
233.6663947
0
ARC
8
bottom_labelLayer
10
339.192992
20
228.6371562
40
7.4319402
50
74.2393366
51
90.5623779
0
ARC
8
bottom_labelLayer
10
339.6844181
20
230.4399733
40
5.5634447
50
38.5631252
51
74.0670445
0
ARC
8
bottom_labelLayer
10
338.419758
20
229.4566268
40
7.1653314
50
16.4709305
51
38.4075242
0
ARC
8
bottom_labelLayer
10
334.7764632
20
228.3141977
40
10.9832088
50
5.1338484
51
16.7973332
0
ARC
8
bottom_labelLayer
10
330.1771362
20
227.8256246
40
15.6079845
50
359.877929
51
5.409363
0
ARC
8
bottom_labelLayer
10
331.5280547
20
227.7082579
40
14.2572786
50
350.6562798
51
0.3380286
0
ARC
8
bottom_labelLayer
10
336.4983836
20
226.8628579
40
9.2156793
50
335.8305911
51
350.825491
0
ARC
8
bottom_labelLayer
10
338.6847257
20
225.9192025
40
6.8347136
50
321.3161505
51
335.5436077
0
ARC
8
bottom_labelLayer
10
339.5205885
20
225.2381023
40
5.756538
50
274.064006
51
321.4080996
0
ARC
8
bottom_labelLayer
10
339.1311907
20
227.7046826
40
8.2472799
50
269.922576
51
275.5481714
0
ARC
8
bottom_labelLayer
10
339.0790398
20
226.8329887
40
7.3756924
50
255.7755386
51
270.3185464
0
ARC
8
bottom_labelLayer
10
338.8685565
20
225.8978336
40
6.4175402
50
245.9801486
51
255.5455754
0
ARC
8
bottom_labelLayer
10
338.4608762
20
224.9497725
40
5.3856465
50
215.5850231
51
245.8361624
0
ARC
8
bottom_labelLayer
10
283.383099
20
236.9633787
40
50.6979027
50
358.1123242
51
0.0484375
0
ARC
8
bottom_labelLayer
10
297.4930287
20
236.4896786
40
36.5800273
50
355.7238644
51
358.1258871
0
ARC
8
bottom_labelLayer
10
303.765307
20
236.0582578
40
30.2930644
50
355.4713576
51
355.6530087
0
ARC
8
bottom_labelLayer
10
338.6158873
20
230.5040845
40
5.5286126
50
95.1835129
51
145.1109004
0
ARC
8
bottom_labelLayer
10
339.1018329
20
227.7637851
40
8.3049733
50
89.8743476
51
96.8145341
0
ARC
8
bottom_labelLayer
10
338.7175769
20
227.1996706
40
6.8331246
50
89.5731434
51
100.7324176
0
ARC
8
bottom_labelLayer
10
338.2117361
20
229.7553624
40
4.2279915
50
100.4469528
51
119.6700723
0
ARC
8
bottom_labelLayer
10
337.7426665
20
230.632343
40
3.233909
50
120.1402875
51
142.4249075
0
ARC
8
bottom_labelLayer
10
338.5186991
20
230.1189713
40
4.1625406
50
143.3382276
51
161.2559935
0
ARC
8
bottom_labelLayer
10
341.7639225
20
228.9668078
40
7.6060392
50
160.8926354
51
171.233432
0
ARC
8
bottom_labelLayer
10
347.1814969
20
228.0928278
40
13.0935806
50
171.0667915
51
177.8456746
0
ARC
8
bottom_labelLayer
10
352.8156486
20
227.8062792
40
18.7346701
50
177.6176752
51
180.0425345
0
ARC
8
bottom_labelLayer
10
350.1586982
20
227.729592
40
16.0778372
50
179.7762762
51
185.7075238
0
ARC
8
bottom_labelLayer
10
343.8197792
20
227.0764608
40
9.7054088
50
185.5924934
51
194.205064
0
ARC
8
bottom_labelLayer
10
339.7591306
20
226.0225834
40
5.5103634
50
193.9430518
51
208.0218313
0
ARC
8
bottom_labelLayer
10
338.116186
20
225.1867751
40
3.667512
50
208.5536784
51
217.5605297
0
ARC
8
bottom_labelLayer
10
337.9823202
20
225.1310936
40
3.5276509
50
218.1690464
51
253.8047204
0
ARC
8
bottom_labelLayer
10
338.6366307
20
227.1483969
40
5.6477781
50
253.1382386
51
266.8483183
0
ARC
8
bottom_labelLayer
10
338.8201138
20
229.3121951
40
7.8186553
50
266.3775488
51
270.0510292
0
ARC
8
bottom_labelLayer
10
338.8789472
20
226.34072
40
4.8474545
50
269.3868986
51
285.8630641
0
ARC
8
bottom_labelLayer
10
339.2390836
20
225.0391388
40
3.4970136
50
286.0162822
51
326.8497419
0
ARC
8
bottom_labelLayer
10
337.5008921
20
226.1906296
40
5.5819897
50
326.7104876
51
343.6661894
0
ARC
8
bottom_labelLayer
10
334.2470865
20
227.1848895
40
8.9841737
50
343.4171289
51
353.6369161
0
ARC
8
bottom_labelLayer
10
329.3325094
20
227.7680379
40
13.9331478
50
353.4934819
51
0.2205382
0
ARC
8
bottom_labelLayer
10
328.8993326
20
227.879821
40
14.366339
50
359.7680741
51
6.3095199
0
ARC
8
bottom_labelLayer
10
334.3108527
20
228.5008264
40
8.9193781
50
6.164853
51
16.039649
0
ARC
8
bottom_labelLayer
10
337.7968434
20
229.528148
40
5.2852981
50
15.7779476
51
32.0151302
0
ARC
8
bottom_labelLayer
10
338.8838545
20
230.1506372
40
4.0338953
50
32.7034216
51
35.5242113
0
ARC
8
bottom_labelLayer
10
339.2814865
20
230.4332543
40
3.5460609
50
35.5408426
51
79.8011184
0
ARC
8
bottom_labelLayer
10
338.8052874
20
228.4088376
40
5.6238884
50
78.6781294
51
90.3749572
0
ARC
8
bottom_labelLayer
10
351.330421
20
227.7076958
40
12.5604183
50
349.1761864
51
0.3862596
0
ARC
8
bottom_labelLayer
10
355.5592187
20
226.8646752
40
8.2486133
50
330.2507034
51
349.4116504
0
ARC
8
bottom_labelLayer
10
356.8606312
20
226.1882514
40
6.7833274
50
318.1439661
51
329.756624
0
ARC
8
bottom_labelLayer
10
357.0955121
20
226.0000167
40
6.4828019
50
278.8959164
51
317.9979139
0
ARC
8
bottom_labelLayer
10
356.490299
20
228.8996448
40
9.4423243
50
269.7502939
51
279.803326
0
ARC
8
bottom_labelLayer
10
356.3921465
20
227.2658807
40
7.8086785
50
253.5436906
51
270.4182464
0
ARC
8
bottom_labelLayer
10
356.1322114
20
226.2603864
40
6.7708312
50
238.8115492
51
253.2428307
0
ARC
8
bottom_labelLayer
10
356.0483218
20
226.0916847
40
6.5830881
50
207.7947022
51
238.6757923
0
ARC
8
bottom_labelLayer
10
357.2521184
20
226.8289513
40
7.9923033
50
205.6560385
51
208.4461342
0
ARC
8
bottom_labelLayer
10
358.1792832
20
227.2152635
40
8.9954763
50
188.9102484
51
205.317141
0
ARC
8
bottom_labelLayer
10
361.3040062
20
227.7444899
40
12.1645231
50
179.7744751
51
189.0932848
0
ARC
8
bottom_labelLayer
10
361.7649405
20
227.8778869
40
12.6256528
50
169.244298
51
180.388077
0
ARC
8
bottom_labelLayer
10
357.4773721
20
228.7253825
40
8.2553117
50
150.7111559
51
169.469537
0
ARC
8
bottom_labelLayer
10
356.1086386
20
229.4282771
40
6.717924
50
138.1759436
51
150.2287448
0
ARC
8
bottom_labelLayer
10
355.880963
20
229.6029908
40
6.4317904
50
99.1759344
51
137.983272
0
ARC
8
bottom_labelLayer
10
356.5076152
20
226.6538975
40
9.4442406
50
89.7326285
51
100.0759812
0
ARC
8
bottom_labelLayer
10
356.632863
20
227.927513
40
8.1709255
50
73.5222706
51
90.5692298
0
ARC
8
bottom_labelLayer
10
357.1120378
20
229.6684832
40
6.365635
50
41.1445706
51
73.2133776
0
ARC
8
bottom_labelLayer
10
356.1973274
20
228.8823034
40
7.5717415
50
13.501441
51
41.0703389
0
ARC
8
bottom_labelLayer
10
352.6633626
20
227.9575121
40
11.2241976
50
1.127719
51
13.880004
0
ARC
8
bottom_labelLayer
10
349.6188997
20
227.7943814
40
14.2716544
50
359.99193
51
1.5419575
0
ARC
8
bottom_labelLayer
10
363.9727298
20
227.7291781
40
12.3137834
50
179.7059623
51
187.9160759
0
ARC
8
bottom_labelLayer
10
359.4564091
20
227.0804133
40
7.7511771
50
187.7639223
51
200.0976943
0
ARC
8
bottom_labelLayer
10
356.9684019
20
226.168804
40
5.1014207
50
200.0846
51
216.9131549
0
ARC
8
bottom_labelLayer
10
356.0598618
20
225.5200649
40
3.9854566
50
217.3009623
51
261.7099028
0
ARC
8
bottom_labelLayer
10
356.4816349
20
227.5327237
40
6.039237
50
260.5033161
51
270.2476795
0
ARC
8
bottom_labelLayer
10
356.5621385
20
227.141359
40
5.6480778
50
269.4481715
51
284.7255742
0
ARC
8
bottom_labelLayer
10
357.009264
20
225.4831165
40
3.930662
50
284.5662324
51
322.6333807
0
ARC
8
bottom_labelLayer
10
355.9638607
20
226.2383727
40
5.2200023
50
323.0089348
51
342.6390479
0
ARC
8
bottom_labelLayer
10
352.9737925
20
227.2156129
40
8.3655519
50
342.36157
51
353.7537588
0
ARC
8
bottom_labelLayer
10
348.5624289
20
227.7473452
40
12.808673
50
353.5363071
51
0.2014108
0
ARC
8
bottom_labelLayer
10
349.2383365
20
227.854298
40
12.1328442
50
359.7075578
51
7.8972726
0
ARC
8
bottom_labelLayer
10
353.6817058
20
228.4912952
40
7.6441213
50
7.7440016
51
20.0690143
0
ARC
8
bottom_labelLayer
10
356.1577455
20
229.399908
40
5.0066362
50
20.025706
51
37.4350462
0
ARC
8
bottom_labelLayer
10
356.9792754
20
229.9828534
40
4.0001225
50
37.9577585
51
80.4006217
0
ARC
8
bottom_labelLayer
10
356.5124281
20
227.8998364
40
6.1328634
50
79.3453306
51
90.3174901
0
ARC
8
bottom_labelLayer
10
356.4259834
20
228.2458243
40
5.7870191
50
89.4805888
51
103.8805052
0
ARC
8
bottom_labelLayer
10
355.9397242
20
230.0974961
40
3.872867
50
103.4685195
51
142.3118969
0
ARC
8
bottom_labelLayer
10
356.8850513
20
229.4326736
40
5.0276671
50
142.9025678
51
162.3749549
0
ARC
8
bottom_labelLayer
10
359.8637868
20
228.4400195
40
8.1672574
50
162.065324
51
173.1674838
0
ARC
8
bottom_labelLayer
10
364.5083725
20
227.8476279
40
12.8493827
50
173.0086085
51
180.2463918
0
LINE
8
bottom_labelLayer
10
375.5360617
20
221.757215
11
375.5360617
21
219.8968634
0
LINE
8
bottom_labelLayer
10
368.3290305
20
224.3646368
11
368.3290305
21
233.9154181
0
LINE
8
bottom_labelLayer
10
368.3290305
20
233.9154181
11
366.0292258
21
233.9154181
0
LINE
8
bottom_labelLayer
10
366.0292258
20
233.9154181
11
366.0292258
21
235.0872931
0
LINE
8
bottom_labelLayer
10
366.0292258
20
235.0872931
11
368.3290305
21
236.0980353
0
LINE
8
bottom_labelLayer
10
368.3290305
20
236.0980353
11
369.3544211
21
239.5257697
0
LINE
8
bottom_labelLayer
10
369.3544211
20
239.5257697
11
370.7606711
21
239.5257697
0
LINE
8
bottom_labelLayer
10
370.7606711
20
239.5257697
11
370.7606711
21
235.8050665
0
LINE
8
bottom_labelLayer
10
370.7606711
20
235.8050665
11
375.4188742
21
235.8050665
0
LINE
8
bottom_labelLayer
10
375.4188742
20
235.8050665
11
375.4188742
21
233.9154181
0
LINE
8
bottom_labelLayer
10
375.4188742
20
233.9154181
11
370.7606711
21
233.9154181
0
LINE
8
bottom_labelLayer
10
370.7606711
20
233.9154181
11
370.7606711
21
224.4671759
0
ARC
8
bottom_labelLayer
10
373.3554719
20
229.4500878
40
7.985859
50
269.8803567
51
278.3028147
0
ARC
8
bottom_labelLayer
10
373.4316162
20
228.8280839
40
7.359393
50
278.4155018
51
279.0081532
0
ARC
8
bottom_labelLayer
10
372.5354359
20
234.5532528
40
13.1542724
50
278.9589712
51
280.5104067
0
ARC
8
bottom_labelLayer
10
373.3894219
20
229.9710752
40
8.4931972
50
280.4847462
51
282.6268366
0
ARC
8
bottom_labelLayer
10
374.1383131
20
226.6439734
40
5.0828564
50
282.5876837
51
285.5794974
0
ARC
8
bottom_labelLayer
10
374.516204
20
225.25462
40
3.643069
50
285.7232314
51
286.2569026
0
ARC
8
bottom_labelLayer
10
374.5137291
20
222.0591561
40
2.3917929
50
287.9888546
51
295.3047972
0
ARC
8
bottom_labelLayer
10
373.9368337
20
223.8045477
40
4.2300386
50
283.3069859
51
288.1197273
0
ARC
8
bottom_labelLayer
10
373.3274494
20
226.3464887
40
6.8439962
50
280.0070073
51
283.3735269
0
ARC
8
bottom_labelLayer
10
372.9195361
20
228.5602547
40
9.0949815
50
279.1863331
51
280.1142569
0
ARC
8
bottom_labelLayer
10
372.6694003
20
229.9829986
40
10.5394295
50
275.5260473
51
279.2939327
0
ARC
8
bottom_labelLayer
10
372.9514542
20
227.0369829
40
7.5799446
50
270.8932554
51
275.5483689
0
ARC
8
bottom_labelLayer
10
372.9869062
20
225.688947
40
6.2315366
50
270.0030105
51
270.7605581
0
ARC
8
bottom_labelLayer
10
372.8891088
20
225.8077407
40
6.3510885
50
253.7847975
51
270.8852589
0
ARC
8
bottom_labelLayer
10
372.1366744
20
223.2416514
40
3.6769696
50
190.3817649
51
253.8772393
0
ARC
8
bottom_labelLayer
10
375.9718236
20
224.2786082
40
7.6432773
50
179.3550956
51
192.8477622
0
ARC
8
bottom_labelLayer
10
375.657079
20
224.4365508
40
4.8965037
50
179.6416421
51
189.750605
0
ARC
8
bottom_labelLayer
10
373.9285251
20
224.1282403
40
3.1407243
50
189.5479448
51
205.7873695
0
ARC
8
bottom_labelLayer
10
373.2181605
20
223.8006692
40
2.3586394
50
206.129448
51
221.4084032
0
ARC
8
bottom_labelLayer
10
373.1385093
20
223.7402311
40
2.258937
50
221.5949217
51
262.3505132
0
ARC
8
bottom_labelLayer
10
373.3279438
20
224.714373
40
3.2501449
50
261.3266146
51
270.1913113
0
LINE
8
bottom_labelLayer
10
386.126882
20
221.757215
11
386.126882
21
219.8968634
0
LINE
8
bottom_labelLayer
10
378.9198508
20
224.3646368
11
378.9198508
21
233.9154181
0
LINE
8
bottom_labelLayer
10
378.9198508
20
233.9154181
11
376.6200461
21
233.9154181
0
LINE
8
bottom_labelLayer
10
376.6200461
20
233.9154181
11
376.6200461
21
235.0872931
0
LINE
8
bottom_labelLayer
10
376.6200461
20
235.0872931
11
378.9198508
21
236.0980353
0
LINE
8
bottom_labelLayer
10
378.9198508
20
236.0980353
11
379.9452414
21
239.5257697
0
LINE
8
bottom_labelLayer
10
379.9452414
20
239.5257697
11
381.3514914
21
239.5257697
0
LINE
8
bottom_labelLayer
10
381.3514914
20
239.5257697
11
381.3514914
21
235.8050665
0
LINE
8
bottom_labelLayer
10
381.3514914
20
235.8050665
11
386.0096945
21
235.8050665
0
LINE
8
bottom_labelLayer
10
386.0096945
20
235.8050665
11
386.0096945
21
233.9154181
0
LINE
8
bottom_labelLayer
10
386.0096945
20
233.9154181
11
381.3514914
21
233.9154181
0
LINE
8
bottom_labelLayer
10
381.3514914
20
233.9154181
11
381.3514914
21
224.4671759
0
ARC
8
bottom_labelLayer
10
383.9462922
20
229.4500878
40
7.985859
50
269.8803567
51
278.3028147
0
ARC
8
bottom_labelLayer
10
384.0224365
20
228.8280839
40
7.359393
50
278.4155018
51
279.0081532
0
ARC
8
bottom_labelLayer
10
383.1262562
20
234.5532528
40
13.1542724
50
278.9589712
51
280.5104067
0
ARC
8
bottom_labelLayer
10
383.9802422
20
229.9710752
40
8.4931972
50
280.4847462
51
282.6268366
0
ARC
8
bottom_labelLayer
10
384.7291334
20
226.6439734
40
5.0828564
50
282.5876837
51
285.5794974
0
ARC
8
bottom_labelLayer
10
385.1070243
20
225.25462
40
3.643069
50
285.7232314
51
286.2569026
0
ARC
8
bottom_labelLayer
10
385.1045495
20
222.0591561
40
2.3917929
50
287.9888546
51
295.3047972
0
ARC
8
bottom_labelLayer
10
384.527654
20
223.8045477
40
4.2300386
50
283.3069859
51
288.1197273
0
ARC
8
bottom_labelLayer
10
383.9182697
20
226.3464887
40
6.8439962
50
280.0070073
51
283.3735269
0
ARC
8
bottom_labelLayer
10
383.5103564
20
228.5602547
40
9.0949815
50
279.1863331
51
280.1142569
0
ARC
8
bottom_labelLayer
10
383.2602206
20
229.9829986
40
10.5394295
50
275.5260473
51
279.2939327
0
ARC
8
bottom_labelLayer
10
383.5422745
20
227.0369829
40
7.5799446
50
270.8932554
51
275.5483689
0
ARC
8
bottom_labelLayer
10
383.5777265
20
225.688947
40
6.2315366
50
270.0030105
51
270.7605581
0
ARC
8
bottom_labelLayer
10
383.4799292
20
225.8077407
40
6.3510885
50
253.7847975
51
270.8852589
0
ARC
8
bottom_labelLayer
10
382.7274947
20
223.2416514
40
3.6769696
50
190.3817649
51
253.8772393
0
ARC
8
bottom_labelLayer
10
386.5626439
20
224.2786082
40
7.6432773
50
179.3550956
51
192.8477622
0
ARC
8
bottom_labelLayer
10
386.2478994
20
224.4365508
40
4.8965037
50
179.6416421
51
189.750605
0
ARC
8
bottom_labelLayer
10
384.5193454
20
224.1282403
40
3.1407243
50
189.5479448
51
205.7873695
0
ARC
8
bottom_labelLayer
10
383.8089808
20
223.8006692
40
2.3586394
50
206.129448
51
221.4084032
0
ARC
8
bottom_labelLayer
10
383.7293296
20
223.7402311
40
2.258937
50
221.5949217
51
262.3505132
0
ARC
8
bottom_labelLayer
10
383.9187641
20
224.714373
40
3.2501449
50
261.3266146
51
270.1913113
0
ARC
8
bottom_labelLayer
10
390.6321788
20
227.7076958
40
12.5604183
50
349.1761864
51
0.3862596
0
ARC
8
bottom_labelLayer
10
394.8609765
20
226.8646752
40
8.2486133
50
330.2507034
51
349.4116504
0
ARC
8
bottom_labelLayer
10
396.162389
20
226.1882514
40
6.7833274
50
318.1439661
51
329.756624
0
ARC
8
bottom_labelLayer
10
396.3972699
20
226.0000167
40
6.4828019
50
278.8959164
51
317.9979139
0
ARC
8
bottom_labelLayer
10
395.7920568
20
228.8996448
40
9.4423243
50
269.7502939
51
279.803326
0
ARC
8
bottom_labelLayer
10
395.6939044
20
227.2658807
40
7.8086785
50
253.5436906
51
270.4182464
0
ARC
8
bottom_labelLayer
10
395.4339693
20
226.2603864
40
6.7708312
50
238.8115492
51
253.2428307
0
ARC
8
bottom_labelLayer
10
395.3500796
20
226.0916847
40
6.5830881
50
207.7947022
51
238.6757923
0
ARC
8
bottom_labelLayer
10
396.5538763
20
226.8289513
40
7.9923033
50
205.6560385
51
208.4461342
0
ARC
8
bottom_labelLayer
10
397.481041
20
227.2152635
40
8.9954763
50
188.9102484
51
205.317141
0
ARC
8
bottom_labelLayer
10
400.605764
20
227.7444899
40
12.1645231
50
179.7744751
51
189.0932848
0
ARC
8
bottom_labelLayer
10
401.0666983
20
227.8778869
40
12.6256528
50
169.244298
51
180.388077
0
ARC
8
bottom_labelLayer
10
396.77913
20
228.7253825
40
8.2553117
50
150.7111559
51
169.469537
0
ARC
8
bottom_labelLayer
10
395.4103964
20
229.4282771
40
6.717924
50
138.1759436
51
150.2287448
0
ARC
8
bottom_labelLayer
10
395.1827208
20
229.6029908
40
6.4317904
50
99.1759344
51
137.983272
0
ARC
8
bottom_labelLayer
10
395.809373
20
226.6538975
40
9.4442406
50
89.7326285
51
100.0759812
0
ARC
8
bottom_labelLayer
10
395.9346208
20
227.927513
40
8.1709255
50
73.5222706
51
90.5692298
0
ARC
8
bottom_labelLayer
10
396.4137956
20
229.6684832
40
6.365635
50
41.1445706
51
73.2133776
0
ARC
8
bottom_labelLayer
10
395.4990853
20
228.8823034
40
7.5717415
50
13.501441
51
41.0703389
0
ARC
8
bottom_labelLayer
10
391.9651204
20
227.9575121
40
11.2241976
50
1.127719
51
13.880004
0
ARC
8
bottom_labelLayer
10
388.9206575
20
227.7943814
40
14.2716544
50
359.99193
51
1.5419575
0
ARC
8
bottom_labelLayer
10
403.2744876
20
227.7291781
40
12.3137834
50
179.7059623
51
187.9160759
0
ARC
8
bottom_labelLayer
10
398.7581669
20
227.0804133
40
7.7511771
50
187.7639223
51
200.0976943
0
ARC
8
bottom_labelLayer
10
396.2701597
20
226.168804
40
5.1014207
50
200.0846
51
216.9131549
0
ARC
8
bottom_labelLayer
10
395.3616196
20
225.5200649
40
3.9854566
50
217.3009623
51
261.7099028
0
ARC
8
bottom_labelLayer
10
395.7833927
20
227.5327237
40
6.039237
50
260.5033161
51
270.2476795
0
ARC
8
bottom_labelLayer
10
395.8638963
20
227.141359
40
5.6480778
50
269.4481715
51
284.7255742
0
ARC
8
bottom_labelLayer
10
396.3110218
20
225.4831165
40
3.930662
50
284.5662324
51
322.6333807
0
ARC
8
bottom_labelLayer
10
395.2656185
20
226.2383727
40
5.2200023
50
323.0089348
51
342.6390479
0
ARC
8
bottom_labelLayer
10
392.2755503
20
227.2156129
40
8.3655519
50
342.36157
51
353.7537588
0
ARC
8
bottom_labelLayer
10
387.8641867
20
227.7473452
40
12.808673
50
353.5363071
51
0.2014108
0
ARC
8
bottom_labelLayer
10
388.5400943
20
227.854298
40
12.1328442
50
359.7075578
51
7.8972726
0
ARC
8
bottom_labelLayer
10
392.9834636
20
228.4912952
40
7.6441213
50
7.7440016
51
20.0690143
0
ARC
8
bottom_labelLayer
10
395.4595033
20
229.399908
40
5.0066362
50
20.025706
51
37.4350462
0
ARC
8
bottom_labelLayer
10
396.2810332
20
229.9828534
40
4.0001225
50
37.9577585
51
80.4006217
0
ARC
8
bottom_labelLayer
10
395.8141859
20
227.8998364
40
6.1328634
50
79.3453306
51
90.3174901
0
ARC
8
bottom_labelLayer
10
395.7277412
20
228.2458243
40
5.7870191
50
89.4805888
51
103.8805052
0
ARC
8
bottom_labelLayer
10
395.241482
20
230.0974961
40
3.872867
50
103.4685195
51
142.3118969
0
ARC
8
bottom_labelLayer
10
396.1868091
20
229.4326736
40
5.0276671
50
142.9025678
51
162.3749549
0
ARC
8
bottom_labelLayer
10
399.1655446
20
228.4400195
40
8.1672574
50
162.065324
51
173.1674838
0
ARC
8
bottom_labelLayer
10
403.8101303
20
227.8476279
40
12.8493827
50
173.0086085
51
180.2463918
0
LINE
8
bottom_labelLayer
10
430.3505148
20
219.750379
11
427.9188742
21
219.750379
0
LINE
8
bottom_labelLayer
10
427.9188742
20
219.750379
11
427.9188742
21
230.194715
0
LINE
8
bottom_labelLayer
10
420.111257
20
228.7152228
11
420.111257
21
219.750379
0
LINE
8
bottom_labelLayer
10
420.111257
20
219.750379
11
417.6796164
21
219.750379
0
LINE
8
bottom_labelLayer
10
417.6796164
20
219.750379
11
417.6796164
21
230.194715
0
LINE
8
bottom_labelLayer
10
409.8866477
20
228.1732306
11
409.8866477
21
219.750379
0
LINE
8
bottom_labelLayer
10
409.8866477
20
219.750379
11
407.455007
21
219.750379
0
LINE
8
bottom_labelLayer
10
407.455007
20
219.750379
11
407.455007
21
235.8050665
0
LINE
8
bottom_labelLayer
10
407.455007
20
235.8050665
11
409.4325461
21
235.8050665
0
LINE
8
bottom_labelLayer
10
409.4325461
20
235.8050665
11
409.8280539
21
233.6078009
0
LINE
8
bottom_labelLayer
10
409.8280539
20
233.6078009
11
409.9452414
21
233.6078009
0
LINE
8
bottom_labelLayer
10
419.6132102
20
233.3734259
11
419.7303977
21
233.3734259
0
LINE
8
bottom_labelLayer
10
430.3505148
20
230.2240118
11
430.3505148
21
219.750379
0
ARC
8
bottom_labelLayer
10
420.7454423
20
230.2329212
40
7.1735337
50
359.6948412
51
8.1471569
0
ARC
8
bottom_labelLayer
10
423.3876763
20
230.6239429
40
4.5025706
50
7.9864598
51
20.7949449
0
ARC
8
bottom_labelLayer
10
424.848238
20
231.1834294
40
2.9385262
50
20.7071102
51
40.0217731
0
ARC
8
bottom_labelLayer
10
425.1686482
20
231.3930699
40
2.5587454
50
41.0408087
51
73.1792696
0
ARC
8
bottom_labelLayer
10
424.7050137
20
229.9907989
40
4.0353648
50
72.6395622
51
86.2568133
0
ARC
8
bottom_labelLayer
10
424.5564848
20
228.3880784
40
5.6445312
50
85.81445
51
90.0685292
0
ARC
8
bottom_labelLayer
10
424.5019179
20
227.7757881
40
6.2570002
50
89.5621444
51
101.2961684
0
ARC
8
bottom_labelLayer
10
424.0306582
20
230.0318668
40
3.9523679
50
101.0032146
51
121.7840497
0
ARC
8
bottom_labelLayer
10
423.6723876
20
230.6714818
40
3.2201243
50
122.3597243
51
140.2884124
0
ARC
8
bottom_labelLayer
10
424.3169577
20
230.1988608
40
4.0182314
50
140.9765313
51
161.1699503
0
ARC
8
bottom_labelLayer
10
426.7451975
20
229.3347045
40
6.5955176
50
160.8731736
51
172.5272444
0
ARC
8
bottom_labelLayer
10
430.8027458
20
228.774328
40
10.6915204
50
172.3776545
51
180.1829488
0
ARC
8
bottom_labelLayer
10
433.7642651
20
228.7151285
40
13.6530081
50
179.8948303
51
179.9996044
0
ARC
8
bottom_labelLayer
10
410.5061845
20
230.2329212
40
7.1735337
50
359.6948412
51
8.1471569
0
ARC
8
bottom_labelLayer
10
413.1484185
20
230.6239429
40
4.5025706
50
7.9864598
51
20.7949449
0
ARC
8
bottom_labelLayer
10
414.6089802
20
231.1834294
40
2.9385262
50
20.7071102
51
40.0217731
0
ARC
8
bottom_labelLayer
10
414.9360522
20
231.3976729
40
2.5506986
50
41.0610782
51
72.8993578
0
ARC
8
bottom_labelLayer
10
414.4636349
20
229.9912338
40
4.0340522
50
72.3601072
51
85.9561854
0
ARC
8
bottom_labelLayer
10
414.3037157
20
228.3385126
40
5.6940984
50
85.5237807
51
90.0793753
0
ARC
8
bottom_labelLayer
10
414.2491657
20
227.9932902
40
6.0394956
50
89.557324
51
101.4832189
0
ARC
8
bottom_labelLayer
10
413.7856139
20
230.1651332
40
3.8189048
50
101.1546399
51
123.0655699
0
ARC
8
bottom_labelLayer
10
413.4705163
20
230.7140195
40
3.1871925
50
123.702056
51
142.3022107
0
ARC
8
bottom_labelLayer
10
414.2086139
20
230.213285
40
4.0777804
50
143.0769812
51
161.3913865
0
ARC
8
bottom_labelLayer
10
417.183829
20
229.162506
40
7.2329072
50
161.023442
51
171.4469179
0
ARC
8
bottom_labelLayer
10
422.1092568
20
228.390951
40
12.2183448
50
171.3041897
51
178.3501563
0
ARC
8
bottom_labelLayer
10
426.8165132
20
228.180712
40
16.9298673
50
178.0976048
51
180.0253193
0
ARC
8
bottom_labelLayer
10
414.06477
20
231.1853146
40
4.779012
50
117.1209586
51
149.5423691
0
ARC
8
bottom_labelLayer
10
414.5525085
20
230.318422
40
5.7730632
50
93.8343302
51
117.5072193
0
ARC
8
bottom_labelLayer
10
414.6872214
20
229.1251987
40
6.9728377
50
89.9661975
51
94.2831347
0
ARC
8
bottom_labelLayer
10
414.7679376
20
228.1371993
40
7.9612045
50
77.5572274
51
90.5513066
0
ARC
8
bottom_labelLayer
10
415.5066482
20
231.3145351
40
4.6994767
50
52.7027109
51
78.0053701
0
ARC
8
bottom_labelLayer
10
415.7698373
20
231.8042079
40
4.1513804
50
22.2097953
51
51.497048
0
ARC
8
bottom_labelLayer
10
424.1354205
20
230.8488977
40
5.0771516
50
119.4041742
51
150.1828832
0
ARC
8
bottom_labelLayer
10
424.6984671
20
229.992688
40
6.0999035
50
118.2583932
51
120.063035
0
ARC
8
bottom_labelLayer
10
424.6968983
20
229.930023
40
6.1544357
50
95.8635192
51
117.9693216
0
ARC
8
bottom_labelLayer
10
424.9051863
20
228.4239347
40
7.6741079
50
89.9196779
51
96.2617467
0
ARC
8
bottom_labelLayer
10
424.9720571
20
227.6456981
40
8.4525235
50
79.9361034
51
90.3803642
0
ARC
8
bottom_labelLayer
10
425.5352596
20
230.695947
40
5.350833
50
62.9723339
51
80.1665038
0
ARC
8
bottom_labelLayer
10
426.1240187
20
231.9038543
40
4.0073749
50
44.2289892
51
62.6229128
0
ARC
8
bottom_labelLayer
10
425.9489057
20
231.826493
40
4.1873466
50
19.5612133
51
43.3161203
0
ARC
8
bottom_labelLayer
10
423.4057499
20
230.8712812
40
6.9037114
50
7.50419
51
19.9645416
0
ARC
8
bottom_labelLayer
10
419.19754
20
230.2803204
40
11.153117
50
359.7107303
51
7.6907354
0
ENDSEC
0
EOF